<?xml version="1.0" standalone="no"?>
<!DOCTYPE svg PUBLIC "-//W3C//DTD SVG 1.1//EN" "http://www.w3.org/Graphics/SVG/1.1/DTD/svg11.dtd" >
<svg>
<metadata>
Created by FontForge 20110222 at Sat May  3 10:49:28 2014
 By www-data
Copyright (c) Manfred Klein, 2004
</metadata>
<defs>
<font id="UltraCondensedSansSerif" horiz-adv-x="380" >
  <font-face 
    font-family="UltraCondensedSansSerif"
    font-weight="400"
    font-stretch="normal"
    units-per-em="1000"
    panose-1="2 0 0 6 8 0 0 2 0 4"
    ascent="800"
    descent="-200"
    x-height="595"
    cap-height="700"
    bbox="-62 -311 1076 894"
    underline-thickness="20"
    underline-position="-158"
    unicode-range="U+0019-E00D"
  />
<missing-glyph horiz-adv-x="1000" 
 />
    <glyph glyph-name=".notdef" horiz-adv-x="1000" 
 />
    <glyph glyph-name="fraction" horiz-adv-x="654" 
d="M611 -17h-18q-2 -34 -12 -58t-30 -44q-14 -14 -26 -21t-30 -7h-339l255 396l-238 398h247q25 0 45 -4.5t38 -27.5q17 -22 24.5 -46t5.5 -57h18v188h-458l-55 7l295 -510l-300 -456h483l60 -17q1 36 2.5 62.5t6.5 61.5q3 20 5.5 36.5t5.5 32t6.5 31.5t8.5 35z" />
    <glyph glyph-name="space" unicode=" " horiz-adv-x="222" 
 />
    <glyph glyph-name="exclam" unicode="!" horiz-adv-x="207" 
d="M144 700h-82l21 -741h39zM128 -114q0 12 -6 25t-20 13t-20.5 -13t-6.5 -25t6 -25t20 -12q14 0 20.5 12.5t6.5 24.5z" />
    <glyph glyph-name="quotedbl" unicode="&#x22;" horiz-adv-x="305" 
d="M255 700h-66v-104h42zM132 700h-67v-104h42z" />
    <glyph glyph-name="numbersign" unicode="#" horiz-adv-x="558" 
d="M498 355v44h-82l52 231h-72l-49 -231h-83l53 231h-71l-51 -231h-96v-44h87l-34 -150h-87v-45h78l-44 -202h68l45 202h82l-45 -202h71l43 202h101v45h-90l33 150h91zM338 355l-33 -150h-84l34 150h83z" />
    <glyph glyph-name="dollar" unicode="$" horiz-adv-x="374" 
d="M320 443v53q0 25 -3.5 44.5t-26.5 37.5q-14 11 -34 14.5t-31 5.5v70h-67v-70q-38 -4 -62 -22q-19 -14 -24.5 -34.5t-5.5 -44.5v-54q0 -4 -0.5 -24t9.5 -52q8 -26 31 -47.5t49 -42.5t49.5 -44.5t32.5 -54.5q6 -20 7.5 -34t1.5 -34v-79q0 -9 -1.5 -18.5t-7 -17.5t-17 -13.5
t-31.5 -5.5t-31.5 5t-18.5 13t-9 17.5t-2 19.5v93l-68 -1v-64q0 -24 4.5 -43t24.5 -36q11 -9 28 -14.5t35 -7.5v-73h66v72q25 2 40 7.5t26 12.5q19 12 24.5 34.5t5.5 46.5v55q0 32 -5 49.5t-15 43.5q-11 27 -31 47.5t-42.5 38.5t-43.5 36.5t-33 43.5q-10 20 -10 35v21v96
q0 9 1.5 19t7.5 18t18 13t33 5q19 0 31 -5t18.5 -13t8.5 -17.5t2 -19.5v-81h66z" />
    <glyph glyph-name="percent" unicode="%" horiz-adv-x="483" 
d="M189 313v336q0 7 -1.5 16t-7.5 16.5t-18.5 13t-33.5 5.5q-23 0 -36.5 -5t-20 -12.5t-8 -17t-1.5 -17.5v-337q0 -17 15 -29t51 -13q35 0 48 13t13 31zM392 700h-36l-257 -850h35zM426 -108v336q0 7 -1.5 16t-7.5 16.5t-19 13t-35 5.5t-34.5 -5t-19 -12.5t-8 -16.5
t-1.5 -17v-338q0 -17 14 -29t49 -12q36 0 49.5 13t13.5 30zM156 301q0 -8 -7.5 -14t-22.5 -6q-14 0 -22 6.5t-8 14.5v360q0 10 5.5 19t24.5 9q22 0 26 -9.5t4 -18.5v-361zM393 -119q0 -8 -7 -14.5t-23 -6.5q-14 0 -22 6.5t-8 14.5v361q0 10 5.5 18.5t24.5 8.5q22 0 26 -9
t4 -18v-361z" />
    <glyph glyph-name="ampersand" unicode="&#x26;" horiz-adv-x="381" 
d="M354 285v28h-33v67h-67v-68h-21h-12q-9 0 -21 1t-24.5 3.5t-19.5 7.5q-17 10 -19 25t-2 26v254q0 9 1.5 19t7 17.5t17 13t31.5 5.5t32 -4.5t19 -12.5t9 -18t2 -20v-91h67v63q0 19 -3.5 38t-16 33.5t-38.5 23t-71 8.5q-44 0 -69 -8.5t-38 -23t-16 -33t-3 -37.5v-226
q0 -3 2.5 -16.5t9.5 -24.5q11 -13 22 -20.5t29 -14.5q-14 -5 -24 -11.5t-21 -15.5q-12 -14 -15 -31t-3 -23v-290q0 -17 6.5 -32.5t21.5 -27t39 -18.5t59 -7q71 1 100 24.5t29 58.5v358h33zM254 -92q0 -17 -16.5 -29.5t-45.5 -12.5q-29 1 -43 13t-14 28v315q0 8 3 24t20 27
q8 5 20.5 7.5t24.5 3.5t20 1h11h20v-377z" />
    <glyph glyph-name="quotesingle" unicode="'" horiz-adv-x="182" 
d="M132 700h-67v-104h42z" />
    <glyph glyph-name="parenleft" unicode="(" horiz-adv-x="234" 
d="M225 -186v14q-2 0 -10.5 0.5t-20 2.5t-24 6t-21.5 12q-17 14 -17 33v777q0 11 3 21.5t11 17.5q14 13 33.5 17t31.5 3.5t14 -0.5v14l-13 1t-32 0t-39.5 -4.5t-36.5 -12.5q-15 -9 -23 -20.5t-11.5 -23t-4 -20t-0.5 -9.5v-746v-8t3 -16.5t11 -20.5t25 -20q16 -9 36.5 -13
t39.5 -5t32 -0.5z" />
    <glyph glyph-name="parenright" unicode=")" horiz-adv-x="239" 
d="M188 -103v747v9t-3 19t-10.5 23t-22.5 21q-13 8 -34 11.5t-40.5 4.5t-34 0.5l-14.5 -0.5v-14l8.5 0.5t20.5 -1t26 -5.5t26 -14q8 -7 10.5 -17.5t2.5 -21.5v-777q0 -19 -16 -33q-9 -8 -22 -12t-25 -6t-21 -2.5t-10 -0.5v-14l13.5 -0.5t32.5 0.5t40 5t37 13t23.5 20
t10.5 20.5t2.5 16.5t-0.5 8z" />
    <glyph glyph-name="asterisk" unicode="*" horiz-adv-x="254" 
d="M234 569l-65 47l64 50l-11 17l-76 -30l-12 77h-22l-10 -76l-77 28l-11 -19l67 -46l-65 -50l11 -18l75 30l13 -77h22l9 77l78 -28z" />
    <glyph glyph-name="plus" unicode="+" horiz-adv-x="609" 
d="M551 40v77h-189v190h-113v-190h-183v-77h183v-190h108v190h194z" />
    <glyph glyph-name="comma" unicode="," horiz-adv-x="174" 
d="M120 -114q2 12 -5 25t-22 13q-14 0 -20.5 -13t-6.5 -25t6.5 -24.5t20.5 -12.5q5 -1 7 0l4 2q0 -2 -1.5 -8.5t-4.5 -12.5l-9 -15v-7q16 11 23 32t8 46z" />
    <glyph glyph-name="hyphen" unicode="-" horiz-adv-x="305" 
d="M248 281v45h-182v-45h182z" />
    <glyph glyph-name="period" unicode="." horiz-adv-x="180" 
d="M120 20q0 12 -6 25t-21 13q-14 0 -20.5 -13t-6.5 -25t6.5 -24.5t20.5 -12.5q14 1 20 13t7 24z" />
    <glyph glyph-name="slash" unicode="/" horiz-adv-x="365" 
d="M311 700h-71l-186 -850h68z" />
    <glyph glyph-name="zero" unicode="0" 
d="M312 -71v673q0 15 -3 33t-15 33t-37 25.5t-69 10.5q-45 0 -71 -10t-38.5 -25t-16 -33.5t-3.5 -34.5v-674q0 -35 29 -58.5t100 -24.5q35 0 58.5 7t38 18.5t21 27t6.5 32.5zM245 -93q0 -17 -14 -28.5t-45 -12.5q-27 0 -43.5 12.5t-16.5 29.5v721q0 10 2 20t8.5 18
t18.5 12.5t31 4.5q21 0 33 -5.5t17.5 -13t7 -17.5t1.5 -19v-722z" />
    <glyph glyph-name="one" unicode="1" horiz-adv-x="260" 
d="M197 -150v850l-131 -26l-6 -36l68 7v-795h69z" />
    <glyph glyph-name="two" unicode="2" 
d="M314 425v177q0 19 -3 37.5t-16 33t-38 23t-69 8.5q-45 0 -71 -8.5t-38.5 -23t-16 -33.5t-3.5 -38v-157h67v185q0 1 0.5 9.5t5.5 19t17.5 18.5t36.5 8q20 0 32 -5t18 -13t7.5 -18t1.5 -19v-186q0 -20 -1.5 -35t-6.5 -35q-6 -25 -15 -42t-24 -40l-63 -97
q-11 -17 -25.5 -41.5t-25.5 -53.5q-14 -37 -19.5 -66t-5.5 -62v-121h253v183h-67v-148h-117v85q0 22 1 35t2.5 22.5t4.5 18.5t8 23q10 31 23 53.5t33 52.5l66 100q16 24 23 43t14 45q5 18 8 31t3 31z" />
    <glyph glyph-name="three" unicode="3" 
d="M318 -71v290q0 6 -2 23t-16 31q-10 10 -19.5 16t-25.5 11q20 7 30.5 14.5t20.5 20.5q8 11 10 24.5t2 16.5v226q0 19 -3 37.5t-16 33t-38 23t-69 8.5q-45 0 -70.5 -8.5t-38 -23t-15.5 -33.5t-3 -38v-157l67 -1v186q0 10 2 20t8.5 18t18 12.5t31.5 4.5q21 0 32.5 -5.5
t17 -13t6.5 -17.5t1 -19v-254q0 -11 -1.5 -26t-17.5 -25q-8 -5 -20.5 -7.5t-24.5 -3.5t-22 -1h-11h-47v-27h47h10t21 -1t24 -3.5t20 -7.5q17 -11 19.5 -27t2.5 -24v-315q0 -16 -14 -28t-43 -13q-27 0 -43.5 12.5t-16.5 29.5v217h-67v-198q0 -17 6.5 -32.5t21.5 -26.5
t39.5 -17.5t59.5 -6.5q36 0 60 6.5t38.5 18.5t21 27.5t6.5 32.5z" />
    <glyph glyph-name="four" unicode="4" horiz-adv-x="408" 
d="M386 95v41h-68v564h-40l-213 -605h184v-245h69v245h68zM249 136h-126l126 360v-360z" />
    <glyph glyph-name="five" unicode="5" horiz-adv-x="377" 
d="M318 -71v424q0 19 -3 38t-15.5 34t-37.5 23.5t-70 6.5q-23 -1 -40.5 -4.5t-19.5 -3.5v221h170v32h-237v-291l34 7q2 0 10 2t20 4t26 3t28 0q28 -3 41.5 -12t19 -21t5.5 -25v-21v-439q0 -17 -14 -28.5t-43 -12.5q-27 0 -43.5 12.5t-16.5 29.5v282h-67v-263
q0 -17 6.5 -32.5t21.5 -26.5t39.5 -17.5t59.5 -6.5q36 0 60 6.5t38.5 18.5t21 27.5t6.5 32.5z" />
    <glyph glyph-name="six" unicode="6" horiz-adv-x="377" 
d="M318 -71v293q0 16 -4 33t-14.5 30.5t-30.5 21.5t-51 8q-17 0 -38 -5.5t-33.5 -10t-14.5 -5.5v335q0 10 2 20t8.5 18t18 12.5t31.5 4.5q21 0 32.5 -5.5t17 -13t6.5 -17.5t1 -19v-188h69v161q0 19 -3 37.5t-16 33t-38 23t-69 8.5q-45 0 -70.5 -8.5t-38 -23t-15.5 -33.5
t-3 -38v-674q0 -17 6.5 -32.5t21.5 -26.5t39.5 -17.5t59.5 -6.5q36 0 60 6.5t38.5 18.5t21 27.5t6.5 32.5zM249 -93q0 -17 -14 -28.5t-43 -12.5q-27 0 -43.5 12.5t-16.5 29.5v358q2 2 21 10.5t51 6.5q18 -1 27.5 -10.5t13 -21t4 -21t0.5 -10.5v-313z" />
    <glyph glyph-name="seven" unicode="7" horiz-adv-x="372" 
d="M321 700h-255v-114h66v81h117l-138 -817h75z" />
    <glyph glyph-name="eight" unicode="8" horiz-adv-x="372" 
d="M318 -71v275q0 12 0.5 22.5t-1 20t-7 18.5t-17.5 17q-11 7 -25.5 12t-18.5 6q4 1 22 10t29 20q12 14 15 25t3 27v220q0 19 -3 37.5t-16 33t-38 23t-69 8.5q-45 0 -70.5 -8.5t-38 -23t-15.5 -33.5t-3 -38v-222q0 -14 3.5 -24t12.5 -22q5 -6 13.5 -11.5t16.5 -10.5t14 -8
t7 -3q-1 0 -15.5 -7t-23.5 -15q-21 -18 -24.5 -35.5t-3.5 -39.5v-276q0 -17 6.5 -32.5t21.5 -26.5t39.5 -17.5t59.5 -6.5q36 0 60 6.5t38.5 18.5t21 27.5t6.5 32.5zM249 355q0 -17 -14 -28.5t-43 -12.5q-27 0 -43.5 12.5t-16.5 29.5v273q0 10 2 20t8.5 18t18 12.5t31.5 4.5
q21 0 32.5 -5.5t17 -13t6.5 -17.5t1 -19v-274zM249 -93q0 -17 -14 -28.5t-43 -12.5q-27 0 -43.5 12.5t-16.5 29.5v321q0 10 2 20t8.5 17.5t18 12.5t31.5 5q21 0 32.5 -5.5t17 -13t6.5 -17.5t1 -19v-322z" />
    <glyph glyph-name="nine" unicode="9" 
d="M314 -53v674q0 35 -28 59t-100 24q-70 0 -98.5 -25.5t-28.5 -60.5v-292q0 -17 4 -33.5t15.5 -30t31.5 -21.5t52 -8q17 0 37.5 5.5t32.5 10t14 5.5v-335q0 -10 -2 -19.5t-8 -17.5t-17.5 -13t-30.5 -5q-21 0 -33.5 5.5t-18.5 13t-8 17.5t-2 19v188h-67v-161
q0 -20 3.5 -38.5t16 -32.5t38 -23t69.5 -9q45 0 70.5 8.5t38.5 23.5t16 33.5t3 38.5zM246 281q-2 -2 -20.5 -9.5t-52.5 -6.5q-18 1 -27.5 10.5t-14 21t-5 21t-0.5 10.5v309q0 17 15 30.5t44 14.5q27 0 44 -12.5t17 -29.5v-359z" />
    <glyph glyph-name="colon" unicode=":" horiz-adv-x="179" 
d="M120 73q0 12 -6 25t-21 13q-14 0 -20.5 -12.5t-6.5 -25.5q0 -12 6.5 -24.5t20.5 -12.5t20 12.5t7 24.5zM120 -114q0 12 -6 25t-21 13q-14 0 -20.5 -13t-6.5 -25t6.5 -25t20.5 -12q14 0 20 12.5t7 24.5z" />
    <glyph glyph-name="semicolon" unicode=";" horiz-adv-x="179" 
d="M120 73q0 12 -6 25t-21 13q-14 0 -20.5 -12.5t-6.5 -25.5q0 -12 6.5 -24.5t20.5 -12.5t20 12.5t7 24.5zM120 -114q2 12 -5 25t-22 13q-14 0 -20.5 -13t-6.5 -25t6.5 -24.5t20.5 -12.5q5 -1 7 0l4 2q0 -2 -1.5 -8.5t-4.5 -12.5l-9 -15v-7q16 11 23 32t8 46z" />
    <glyph glyph-name="less" unicode="&#x3c;" horiz-adv-x="672" 
d="M609 -152v79l-457 239l456 226v82l-546 -276v-65z" />
    <glyph glyph-name="equal" unicode="=" horiz-adv-x="692" 
d="M632 363v71h-567v-71h567zM632 128v71h-567v-71h567z" />
    <glyph glyph-name="greater" unicode="&#x3e;" horiz-adv-x="674" 
d="M614 136v64l-546 276v-82l454 -226l-456 -239v-78z" />
    <glyph glyph-name="question" unicode="?" 
d="M314 461v141q0 19 -3 37.5t-16 33t-38 23t-69 8.5q-45 0 -71 -8.5t-38.5 -23t-16 -33.5t-3.5 -38v-157h67v185q0 1 0.5 9.5t5.5 19t17.5 18.5t36.5 8q20 0 32 -5t18 -13t7.5 -18t1.5 -19v-151l-0.5 -8t-1 -20t-1.5 -25.5t-2 -24.5q-4 -33 -13.5 -57t-20 -47.5t-20 -51.5
t-13.5 -68q-4 -42 -4.5 -76.5t-0.5 -45.5v-96h36v97q0 19 3 47.5t11 57.5q9 34 21.5 61t25.5 52.5t24.5 52.5t16.5 61q2 14 4 32t3 29t1 13zM212 -114q0 12 -6.5 25t-20.5 13t-20.5 -13t-6.5 -25q-2 -12 5.5 -25t21.5 -12q14 0 20.5 12.5t6.5 24.5z" />
    <glyph glyph-name="at" unicode="@" horiz-adv-x="608" 
d="M538 361q-5 57 -24.5 102.5t-49 78t-67 50t-78.5 19.5q-50 3 -93 -23.5t-75.5 -73t-51.5 -108t-19 -130.5t18.5 -130t50 -107.5t74.5 -73.5t93 -28q141 -3 210 166h-39q-32 -64 -74.5 -92t-96.5 -29q-42 0 -77.5 23t-62 62.5t-41.5 92t-15 109.5q0 59 15 113.5t42 95.5
t64 65t80 22q32 -2 61.5 -15.5t53 -38.5t39.5 -60.5t22 -80.5q3 -27 1 -54t-7 -51t-12 -44.5t-13 -35.5q-8 -20 -22 -36.5t-27.5 -25t-24.5 -6t-13 21.5v12q0 6 2 13l72 293h-46l-7 -39q-7 14 -14.5 23.5t-18.5 18.5q-23 20 -49 16.5t-50 -23.5t-44 -52t-32 -68
q-11 -33 -17 -70.5t-4.5 -72t13 -63t35.5 -42.5q32 -18 61.5 -10t53.5 40q4 -8 7.5 -13.5t7.5 -13.5q17 -23 39.5 -22t44.5 16t40.5 39.5t27.5 48.5q8 20 15.5 39.5t13.5 41.5t8.5 48.5t-0.5 61.5zM354 245q-8 -24 -18.5 -48t-23 -41.5t-28 -25t-32.5 2.5t-25 30t-8.5 45
t4 51.5t12.5 50.5q8 25 21 50.5t29 42t33 21t33 -10.5q15 -14 20 -33.5t3.5 -42t-7.5 -46.5t-13 -46z" />
    <glyph glyph-name="A" unicode="A" horiz-adv-x="377" 
d="M315 -150v752q0 19 -3 37.5t-15 32.5t-37 23t-69 9q-45 0 -71 -8.5t-38.5 -23t-16 -33.5t-3.5 -38v-751h67v435h119v-435h67zM248 320h-119v309q0 10 2 20t8.5 18t18.5 12.5t31 4.5q21 0 33 -5.5t17.5 -13t7 -17.5t1.5 -19v-309z" />
    <glyph glyph-name="B" unicode="B" horiz-adv-x="377" 
d="M318 -54v252q0 23 -2 41.5t-23 36.5q-6 5 -13.5 9.5t-14.5 8.5t-13 6.5t-7 2.5q1 0 8 3t16 7.5t17.5 10t13.5 11.5q11 11 14.5 20t3.5 21v220q0 25 -3 46t-28 37q-15 9 -31 13t-31 6t-27 2h-15h-118v-850h114h15t26.5 1.5t33 6t34.5 14.5q12 7 18 16.5t9 19.5t3 20v18z
M249 393q0 -18 -4 -35.5t-11 -24.5q-10 -9 -26.5 -15.5t-39.5 -6.5h-36v367h38q32 0 54 -8q17 -5 21 -18t4 -32v-227zM249 -73q0 -12 -1.5 -22.5t-11.5 -18.5q-8 -5 -18 -7.5t-19.5 -3.5t-16.5 -1h-8h-42l-1 413h36q18 0 29.5 -2.5t27.5 -11.5t20.5 -26t4.5 -36v-284z" />
    <glyph glyph-name="C" unicode="C" 
d="M314 -71v194h-69v-216q0 -17 -14 -28.5t-45 -12.5q-27 0 -43.5 12.5t-16.5 29.5v721q0 10 2 20t8.5 18t18.5 12.5t31 4.5q21 0 33 -5.5t17.5 -13t7 -17.5t1.5 -19v-187h69v160q0 19 -3 37.5t-16 33t-38 23t-69 8.5q-45 0 -71 -8.5t-38.5 -23t-16 -33.5t-3.5 -38v-674
q0 -35 29 -58.5t100 -24.5q35 0 59 7t39 18.5t21.5 27t6.5 32.5z" />
    <glyph glyph-name="D" unicode="D" horiz-adv-x="384" 
d="M320 -56v651q0 25 -3 45.5t-29 36.5q-15 9 -31.5 13t-31 6t-25.5 2h-15h-119v-849h113h13t28.5 1.5t35.5 6.5t34 15q21 14 25.5 35t4.5 37zM251 -73q0 -13 -1.5 -23.5t-12.5 -18.5q-9 -6 -24 -9t-25 -3h-11h-45v802h42q20 0 31 -2.5t20 -5.5q17 -6 21.5 -18t4.5 -31v-691
z" />
    <glyph glyph-name="E" unicode="E" horiz-adv-x="309" 
d="M264 -150v35h-132v401h117v35h-117v346h131v33h-198v-850h199z" />
    <glyph glyph-name="F" unicode="F" horiz-adv-x="321" 
d="M263 667v33h-198v-850h67v436h117v35h-117v346h131z" />
    <glyph glyph-name="G" unicode="G" 
d="M314 -71v338h-137v-33h69v-328q0 -16 -14 -28t-43 -12q-28 0 -44.5 12.5t-16.5 29.5v720q0 10 2 19.5t9 17.5t18.5 13t31.5 5t31.5 -5.5t17 -13.5t7 -17.5t1.5 -18.5v-187h68v160q0 19 -3 37t-15.5 32.5t-37.5 23t-69 8.5t-69.5 -8.5t-38.5 -22.5t-16 -33t-3 -38v-674
q0 -17 6.5 -32t21.5 -26.5t39.5 -18t59.5 -6.5t59 7.5t38.5 19.5t21 27.5t6.5 31.5z" />
    <glyph glyph-name="H" unicode="H" horiz-adv-x="383" 
d="M320 -150v850h-71v-379h-117v379h-67v-850h67v437h117v-437h71z" />
    <glyph glyph-name="I" unicode="I" horiz-adv-x="197" 
d="M132 -150v850h-67v-850h67z" />
    <glyph glyph-name="J" unicode="J" 
d="M311 -73v773h-69v-792q0 -17 -15 -29.5t-42 -12.5q-31 0 -45 12t-14 29v317h-69v-295q0 -17 6.5 -32.5t21.5 -27t39 -18.5t59 -7q71 1 99.5 24.5t28.5 58.5z" />
    <glyph glyph-name="K" unicode="K" horiz-adv-x="377" 
d="M326 -150l-149 471l138 379h-52l-137 -378v378h-67v-850h67v436l137 -436h63z" />
    <glyph glyph-name="L" unicode="L" horiz-adv-x="308" 
d="M249 -150v35h-117v815h-67v-850h184z" />
    <glyph glyph-name="M" unicode="M" horiz-adv-x="473" 
d="M417 -150v850h-57l-118 -569l-117 569h-60v-850h67v567l110 -469l109 469v-567h66z" />
    <glyph glyph-name="N" unicode="N" horiz-adv-x="384" 
d="M317 -150v850h-68v-514l-124 514h-60v-850h67v619l117 -457v-162h68z" />
    <glyph glyph-name="O" unicode="O" horiz-adv-x="372" 
d="M317 -71v673q0 15 -3 33t-15.5 33t-37.5 25.5t-69 10.5q-45 0 -70.5 -10t-38 -25t-15.5 -33.5t-3 -34.5v-674q0 -17 6.5 -32.5t21.5 -26.5t39.5 -17.5t59.5 -6.5q36 0 60 6.5t38.5 18.5t20.5 27.5t6 32.5zM249 -93q0 -17 -14 -28.5t-43 -12.5q-27 0 -43.5 12.5
t-16.5 29.5v721q0 10 2 20t8.5 18t18 12.5t31.5 4.5q21 0 32.5 -5.5t17 -13t6.5 -17.5t1 -19v-722z" />
    <glyph glyph-name="P" unicode="P" horiz-adv-x="372" 
d="M317 227v368q0 26 -3 47t-29 36q-19 11 -44 15.5t-41 4.5h-17h-118v-848h67v281h47h12t27 2t34.5 6.5t34.5 14.5q21 13 25.5 34.5t4.5 38.5zM249 208q0 -8 -0.5 -17t-11.5 -17q-12 -9 -29 -13t-27.5 -5t-12.5 -1h-37v521h43q20 0 30.5 -2.5t20.5 -6.5q16 -5 20 -17t4 -31
v-411z" />
    <glyph glyph-name="Q" unicode="Q" 
d="M356 -181v49l-42 27v707q0 19 -3 37.5t-16 33t-38 23t-69 8.5q-45 0 -71 -8.5t-38.5 -23t-16 -33.5t-3.5 -38v-674q0 -35 29 -58.5t100 -24.5q36 0 58.5 5.5t40.5 15.5zM245 -64l-72 49v-44l70 -47q-3 -9 -14.5 -18.5t-42.5 -9.5q-27 0 -43.5 12.5t-16.5 29.5v721
q0 10 2 20t8.5 18t18.5 12.5t31 4.5q21 0 33 -5.5t17.5 -13t7 -17.5t1.5 -19v-693z" />
    <glyph glyph-name="R" unicode="R" horiz-adv-x="371" 
d="M317 -151v348q0 23 -3.5 40.5t-20.5 37.5q-5 6 -13 11t-15.5 8.5t-13 5.5t-6.5 2q1 0 8 3t16 7.5t17.5 10t13.5 11.5q11 11 14 20t3 21v220q0 25 -3 46t-29 37q-15 9 -33 13t-34.5 5.5t-28.5 1.5h-12h-112v-849h67v438h30q18 0 32 -3t30 -11q16 -9 20.5 -26.5t4.5 -35.5
v-362h68zM249 391q0 -17 -4 -34t-11 -24q-10 -9 -29.5 -15.5t-40.5 -6.5h-32v364h41q29 0 51 -8q16 -5 20.5 -17.5t4.5 -31.5v-227z" />
    <glyph glyph-name="S" unicode="S" horiz-adv-x="374" 
d="M314 -54v161q0 16 -1.5 28.5t-4.5 23.5t-7 22t-10 25q-11 27 -26 50.5t-26 40.5l-63 97q-15 23 -24 41t-15 43q-8 29 -8.5 50.5t-0.5 50.5v50q0 9 1.5 19t7.5 17.5t18 13t33 5.5q19 0 30.5 -4.5t17.5 -12.5t8 -18t2 -20v-185h68v157q0 19 -3 38t-16 33.5t-38.5 23
t-70.5 8.5q-44 0 -69 -8.5t-38 -23t-16 -33t-3 -37.5v-41q0 -27 1 -46.5t8 -46.5t14.5 -46t24.5 -44l66 -101q10 -15 18 -26.5t15 -23t12.5 -24t10.5 -27.5q6 -20 11 -35t5 -36v-185q0 -9 -1.5 -19t-7 -18t-17 -13.5t-31.5 -5.5t-31.5 5t-18.5 13t-9 18t-2 20v204l-68 -1
v-176q0 -19 3.5 -37.5t16 -33.5t38.5 -23.5t71 -8.5q44 0 69 9t37.5 23.5t15.5 32.5t3 37z" />
    <glyph glyph-name="T" unicode="T" horiz-adv-x="323" 
d="M298 668v31h-264v-31h96v-818h68v818h100z" />
    <glyph glyph-name="U" unicode="U" horiz-adv-x="374" 
d="M315 -73v772h-67v-791q0 -17 -15 -29.5t-42 -12.5q-29 0 -44 12t-15 29v792h-67v-770q0 -17 6.5 -32.5t21.5 -27t39 -18.5t59 -7q36 0 60 6.5t38 18t20 26.5t6 32z" />
    <glyph glyph-name="V" unicode="V" horiz-adv-x="347" 
d="M312 700h-57q-3 -34 -4.5 -62t-4 -54.5t-5.5 -54.5t-7 -61q-7 -56 -13 -102.5t-12 -91.5t-12.5 -91.5t-14.5 -102.5q-8 56 -15.5 104t-14.5 93.5t-13.5 91.5t-10.5 97q-3 34 -5 62t-4 55t-4 55t-4 62h-69q2 -36 3.5 -66t3 -58.5t4 -58.5t7.5 -66q10 -84 20.5 -155.5
t22 -141.5t23.5 -143.5t26 -160.5h37q14 87 26.5 159t24 141t22.5 141t23 160q5 36 8.5 66t6.5 58.5t5.5 58.5t6.5 66z" />
    <glyph glyph-name="W" unicode="W" horiz-adv-x="452" 
d="M411 700h-45q-1 -33 -2 -61t-1.5 -54t-1.5 -54t-2 -61q-1 -44 -2 -80t-2.5 -71t-2.5 -71.5t-2 -80.5q-10 45 -18.5 82t-17 72.5t-16.5 73.5t-17 85q-6 33 -10 56t-6.5 43.5t-4.5 40.5t-6 47h-23q-4 -29 -7 -53t-6 -46.5t-7 -46.5t-8 -53q-9 -56 -15.5 -93t-13 -67
l-13 -60t-14.5 -73q-3 42 -5.5 73.5l-5 63t-5 67.5t-6.5 87q-3 34 -4 62t-1.5 55t-1 55t-1.5 62h-70q1 -36 2 -66t2.5 -58.5t3 -58.5t4.5 -66q7 -84 12.5 -155.5t10 -141.5t9 -143.5t11.5 -160.5h38q8 49 13.5 82.5l11 67t13 77t19.5 113.5q5 27 9.5 49.5t9 44t9.5 44
l11 49.5q5 -27 9 -49.5t8.5 -43.5t9 -43t9.5 -49q10 -50 17 -91t13 -80t11.5 -80.5t13.5 -90.5h27q7 88 14 160.5t13 142t11.5 142t9.5 160.5q1 36 2.5 65t2.5 57.5t2 57.5t2 65z" />
    <glyph glyph-name="X" unicode="X" horiz-adv-x="396" 
d="M336 -150q-6 30 -11.5 55.5t-10.5 49.5t-11 49t-12 56q-8 35 -15 64.5t-14 57t-14.5 57t-16.5 64.5q9 39 16 70.5t14 62t14 62.5t16 70q4 19 8 35t7 31t6.5 31t8.5 35h-52q-8 -36 -13.5 -61.5t-12.5 -61.5q-6 -29 -11 -53t-9.5 -46.5t-10 -46.5t-11.5 -53q-8 27 -14.5 50
t-12.5 45t-11 45t-11 50q-8 38 -13.5 66t-10.5 66h-68q4 -21 7.5 -39t7 -34.5t7 -34.5t8.5 -39q9 -43 17.5 -78.5t16.5 -69.5t16 -69.5t18 -78.5q-8 -29 -14 -53t-11.5 -46.5t-12 -46.5t-13.5 -53q-8 -30 -13.5 -55t-11 -49t-10.5 -49t-12 -55h50q4 27 8 49.5t8 43.5t9 43.5
l11 49.5q6 24 10.5 44.5t10 39.5t11 39t13.5 44q6 -23 11 -41.5t9.5 -36.5t9 -37t9.5 -41q6 -29 11 -52.5t8.5 -46t7 -46t7.5 -52.5h72z" />
    <glyph glyph-name="Y" unicode="Y" horiz-adv-x="360" 
d="M326 700h-50q-4 -26 -7 -47.5t-6 -42.5t-7 -42.5t-8 -47.5q-7 -39 -13.5 -71.5t-13.5 -64t-14.5 -63.5t-15.5 -68q-8 38 -14.5 69.5t-12.5 61.5t-12.5 61.5t-14.5 69.5q-6 27 -9.5 49t-6 43t-5 43.5t-6.5 49.5h-69q4 -27 7 -49t6 -43.5t6.5 -43.5t8.5 -49q9 -51 18 -92
t19 -80.5t20.5 -81t22.5 -91.5v-320h69v321q11 48 21 88t19 78.5t18 78.5t18 89q6 29 10 52.5t7.5 45.5t6.5 45t8 52z" />
    <glyph glyph-name="Z" unicode="Z" horiz-adv-x="371" 
d="M308 -150v35h-167l158 815h-228v-32h145l-157 -818h249v0z" />
    <glyph glyph-name="bracketleft" unicode="[" horiz-adv-x="255" 
d="M225 -193v35h-93v865h92v32h-159v-932h160z" />
    <glyph glyph-name="backslash" unicode="\" horiz-adv-x="381" 
d="M362 -300l-224 1000h-70l226 -1000h68z" />
    <glyph glyph-name="bracketright" unicode="]" horiz-adv-x="258" 
d="M198 -193v932h-157v-32h93v-865h-95v-35h159z" />
    <glyph glyph-name="asciicircum" unicode="^" horiz-adv-x="428" 
d="M377 649l-111 74h-95l-109 -74l30 -20l127 62l128 -62z" />
    <glyph glyph-name="underscore" unicode="_" horiz-adv-x="1037" 
d="M1076 -223v15h-1068v-15h1068z" />
    <glyph glyph-name="grave" unicode="`" horiz-adv-x="269" 
d="M212 649l-110 74l-48 -32l128 -62z" />
    <glyph glyph-name="a" unicode="a" horiz-adv-x="372" 
d="M312 -42v539q0 19 -3 37.5t-15 32.5t-37 23t-69 9q-45 0 -71 -8.5t-38.5 -23t-16 -33.5t-3.5 -38v-538h67v327h119v-327h67zM245 320h-119v204q0 20 11 37.5t49 17.5q21 0 33 -5.5t17.5 -13t7 -17.5t1.5 -19v-204z" />
    <glyph glyph-name="b" unicode="b" horiz-adv-x="377" 
d="M318 53v145q0 23 -2 41.5t-23 36.5q-6 5 -13.5 9.5t-14.5 8.5t-13 6.5t-7 2.5q1 0 8 3t16 7.5t17.5 10t13.5 11.5q11 11 14.5 20t3.5 21v117q0 25 -3 45.5t-28 36.5q-14 9 -30.5 13.5t-31.5 6t-27 1.5h-15h-118v-638h114h15q12 0 27 1.5t32.5 6.5t34.5 15q12 7 18 16
t9 19t3 19v18zM249 393q0 -18 -4 -35.5t-11 -24.5q-10 -9 -26.5 -15.5t-39.5 -6.5h-36v263h38q32 0 54 -8q17 -6 21 -18.5t4 -31.5v-123zM249 35q0 -12 -1 -23t-12 -19q-7 -5 -17 -7.5t-19.5 -3.5t-16.5 -1h-7h-44v306h36q17 0 28.5 -2.5t27.5 -11.5t20.5 -26t4.5 -36v-176z
" />
    <glyph glyph-name="c" unicode="c" horiz-adv-x="371" 
d="M314 41v82h-69v-104q0 -17 -14 -28.5t-45 -12.5q-27 0 -43.5 12.5t-16.5 29.5v502q0 10 2 20t8.5 17.5t18.5 12.5t31 5q21 0 33 -5.5t17.5 -13t7 -17.5t1.5 -19v-80h69v54q0 19 -3 37.5t-16 32.5t-38 23t-69 9q-45 0 -71 -8.5t-38.5 -23.5t-16 -33.5t-3.5 -37.5v-457
q0 -35 29 -59t100 -24q35 0 59 7t39 19t21.5 27.5t6.5 32.5z" />
    <glyph glyph-name="d" unicode="d" horiz-adv-x="377" 
d="M318 53v439q0 25 -3 46t-28 37q-15 9 -31 13t-31 5.5t-27 1.5h-15h-118v-637h114h12q12 0 28.5 2t35 6.5t33.5 14.5q11 7 17 16t9 19t3.5 19.5t0.5 17.5zM249 35q0 -12 -1.5 -23t-11.5 -19q-8 -5 -18 -7.5t-19.5 -3.5t-16.5 -1h-8h-43v591h43q20 0 30.5 -2t20.5 -6
q16 -5 20 -17t4 -31v-481z" />
    <glyph glyph-name="e" unicode="e" horiz-adv-x="306" 
d="M263 -41v35h-134v292h119v35h-119v241h132v33h-199v-636h201z" />
    <glyph glyph-name="f" unicode="f" horiz-adv-x="306" 
d="M261 563v32h-199v-637h67v328h119v35h-119v242h132z" />
    <glyph glyph-name="g" unicode="g" 
d="M314 41v227h-138v-33h69v-216q0 -17 -14 -28.5t-45 -12.5q-27 0 -43.5 12.5t-16.5 29.5v502q0 10 2 20t8.5 17.5t18.5 12.5t31 5q21 0 33 -5t17.5 -13t7 -17.5t1.5 -18.5v-81h69v54q0 19 -3 37.5t-16 32.5t-38 23t-69 9q-45 0 -71 -8.5t-38.5 -23.5t-16 -33.5t-3.5 -37.5
v-457q0 -35 29 -59t100 -24q35 0 59 7t39 19t21.5 27.5t6.5 32.5z" />
    <glyph glyph-name="h" unicode="h" horiz-adv-x="383" 
d="M320 -42v638h-71v-275h-117v275h-67v-638h67v329h117v-329h71z" />
    <glyph glyph-name="i" unicode="i" horiz-adv-x="201" 
d="M138 -42v637h-67v-637h67z" />
    <glyph glyph-name="j" unicode="j" 
d="M317 38v557h-71v-575q0 -17 -15 -29.5t-42 -12.5q-29 0 -43 12t-14 29v205h-70v-183q0 -17 6.5 -32.5t21.5 -27.5t39.5 -19t59.5 -7q71 0 99.5 24t28.5 59z" />
    <glyph glyph-name="k" unicode="k" horiz-adv-x="372" 
d="M327 -42l-148 363l138 274h-50l-136 -273v273h-66v-637h67v328l137 -328h58z" />
    <glyph glyph-name="l" unicode="l" horiz-adv-x="299" 
d="M243 -41v34h-117v602h-67v-636h184z" />
    <glyph glyph-name="m" unicode="m" horiz-adv-x="473" 
d="M417 -42v638h-57l-118 -406l-117 406h-60v-638h67v433l110 -365l109 365v-433h66z" />
    <glyph glyph-name="n" unicode="n" horiz-adv-x="378" 
d="M312 -42v638h-66v-302l-127 302h-60v-638h67v494l120 -258v-236h66z" />
    <glyph glyph-name="o" unicode="o" horiz-adv-x="371" 
d="M312 41v455q0 15 -3 32.5t-15 33t-37 26t-69 10.5q-45 0 -71 -10t-38.5 -25t-16 -33.5t-3.5 -34.5v-457q0 -35 29 -59t100 -24q35 0 58.5 7t38 19t21 27.5t6.5 32.5zM245 19q0 -17 -14 -28.5t-45 -12.5q-27 0 -43.5 12.5t-16.5 29.5v502q0 10 2 20t8.5 17.5t18.5 12.5
t31 5q21 0 33 -5.5t17.5 -13t7 -17.5t1.5 -19v-503z" />
    <glyph glyph-name="p" unicode="p" horiz-adv-x="377" 
d="M318 227v266q0 26 -3.5 47t-29.5 36q-19 11 -44 15.5t-41 4.5h-17h-118v-637h67v173h47h12t27 1.5t34.5 6t34.5 14.5q22 14 26.5 35t4.5 38zM249 209q0 -8 -0.5 -17t-11.5 -17q-10 -7 -22 -11t-22.5 -6t-18 -2.5l-7.5 -0.5h-36v419h43q20 0 30.5 -2.5t20.5 -6.5
q16 -6 20 -17.5t4 -30.5v-308z" />
    <glyph glyph-name="q" unicode="q" 
d="M356 -69v49l-42 27v489q0 19 -3 37.5t-16 32.5t-38 23t-69 9q-45 0 -71 -8.5t-38.5 -23.5t-16 -33.5t-3.5 -37.5v-457q0 -35 29 -58.5t100 -24.5q36 0 58.5 5.5t40.5 16.5zM245 46l-72 49v-43l70 -46q-3 -9 -14.5 -18.5t-42.5 -9.5q-27 0 -43.5 12.5t-16.5 29.5v502
q0 10 2 20t8.5 17.5t18.5 12.5t31 5q21 0 33 -5.5t17.5 -13t7 -17.5t1.5 -19v-476z" />
    <glyph glyph-name="r" unicode="r" horiz-adv-x="372" 
d="M318 -42v240q0 23 -2 41.5t-23 36.5q-6 5 -13.5 9.5t-14.5 8.5t-13 6.5t-7 2.5q1 0 8 3t16 7.5t17.5 10t13.5 11.5q11 11 14.5 20t3.5 21v117q0 25 -3.5 45.5t-29.5 36.5q-15 9 -33 13.5t-34 6t-28 1.5h-11h-114v-638h67v330h30q20 0 33 -3t29 -12q16 -8 20.5 -25.5
t4.5 -36.5v-253h69zM249 393q0 -17 -4 -34t-11 -25q-10 -9 -29.5 -15t-40.5 -6h-32v260h41q29 0 51 -8q17 -5 21 -17.5t4 -31.5v-123z" />
    <glyph glyph-name="s" unicode="s" horiz-adv-x="390" 
d="M326 443v53q0 19 -3 38t-16 33t-38.5 23t-70.5 9q-44 0 -69.5 -8.5t-38 -23t-16 -33t-3.5 -37.5v-54q0 -4 0.5 -24t9.5 -52q8 -26 30.5 -47.5t48.5 -42.5t49.5 -44.5t32.5 -54.5q5 -20 7.5 -34t2.5 -34v-79q0 -9 -1.5 -18.5t-7 -17.5t-17 -13.5t-32.5 -5.5q-20 0 -32 5
t-19 13t-9 17.5t-2 19.5v93l-67 -1v-64q0 -20 3.5 -38.5t16.5 -33t39 -23t71 -8.5q43 0 68 9t37 23t15 32.5t3 37.5v55q0 32 -4 49.5t-14 43.5q-11 27 -32 47.5t-44 38.5t-44 36.5t-33 43.5q-10 20 -9.5 35.5t0.5 20.5v96q0 9 2 19t8 18t18 13t32 5t32 -5t18 -13t8 -17.5
t2 -19.5v-81h68z" />
    <glyph glyph-name="t" unicode="t" horiz-adv-x="329" 
d="M297 564v31h-264v-31h96v-605h68v605h100z" />
    <glyph glyph-name="u" unicode="u" horiz-adv-x="374" 
d="M315 38v558h-67v-576q0 -17 -15 -29.5t-42 -12.5q-29 0 -44 12t-15 29v577h-67v-555q0 -17 6.5 -32.5t21.5 -27.5t39 -19t59 -7t59 6.5t38.5 18t20.5 26.5t6 32z" />
    <glyph glyph-name="v" unicode="v" horiz-adv-x="378" 
d="M326 595h-57q-3 -25 -5 -46t-4 -41t-5 -41t-7 -46q-8 -42 -14 -77t-12.5 -68t-13 -68t-13.5 -77q-10 42 -18 77.5t-15 70t-12 69t-9 73.5q-3 25 -5.5 46t-4.5 41t-4 41t-4 46h-69q2 -27 3.5 -49.5t3.5 -43.5t4.5 -43.5t6.5 -49.5q10 -63 18.5 -116.5t19 -106t23.5 -108
t31 -120.5h39q14 66 26 120t23.5 105.5t23 105.5t23.5 120q5 27 8 49.5t6 43.5t6 43.5t7 49.5z" />
    <glyph glyph-name="w" unicode="w" horiz-adv-x="464" 
d="M419 596h-45q-1 -25 -2 -45.5t-2 -40.5t-2 -40.5t-2 -45.5q-1 -33 -2 -60t-2.5 -53.5t-2.5 -53.5t-2 -60q-12 34 -21 61.5t-16.5 54t-15 55t-16.5 63.5q-6 25 -9.5 42.5l-6.5 32.5t-5.5 30t-6.5 36h-21q-3 -22 -6 -40t-6 -35t-7 -35t-8 -40q-9 -42 -15.5 -70t-12.5 -50.5
t-13 -45t-16 -53.5q-5 31 -7.5 55t-4.5 47t-4.5 50t-6.5 66q-3 25 -4.5 46t-1.5 41v41v47h-72q2 -27 3 -49.5t2 -44t2.5 -44t4.5 -49.5q7 -63 12.5 -116.5t10.5 -106t10 -107.5t11 -120h37q9 37 14 61.5t10.5 50t12.5 58t20 85.5q5 20 9.5 37t9 33t9.5 33t11 37
q6 -20 10.5 -37t9 -32.5t9 -32.5t9.5 -37q10 -37 16.5 -68t12 -60t11 -60t12.5 -68h29q7 66 14 120.5t13.5 106.5t12 106t8.5 120q1 27 2 49t2.5 43t2.5 43t2 49z" />
    <glyph glyph-name="x" unicode="x" horiz-adv-x="396" 
d="M341 -42q-7 23 -12 41.5t-10 36.5t-10 37t-12 42q-8 27 -15 48.5t-14 42.5t-15 43t-17 49q8 29 15 53t13.5 46.5t13.5 46.5t16 53q8 29 15.5 49t16.5 49h-53q-7 -26 -12 -45.5t-13 -46.5q-6 -21 -11 -39t-10 -35t-10 -35t-11 -40q-9 21 -15.5 38t-12 33t-11 33t-11.5 38
q-8 29 -13 49.5t-11 49.5h-67q9 -32 15 -55t15 -55t17 -58.5t16.5 -52t17 -52t18.5 -58.5q-8 -22 -14 -40.5t-12 -35.5t-12.5 -35t-14.5 -39q-8 -23 -13.5 -41.5t-10.5 -36.5t-10 -37t-12 -41h51q4 20 7.5 37t7.5 33t8.5 32.5t10.5 36.5q6 18 11 33.5t10 29.5t11 29t13 33
q13 -33 21.5 -57.5t17.5 -58.5q6 -21 10.5 -39t8.5 -35t8 -35t8 -39h72z" />
    <glyph glyph-name="y" unicode="y" horiz-adv-x="384" 
d="M336 595h-49q-7 -38 -12.5 -66.5t-14.5 -67.5q-7 -29 -13.5 -53.5t-13.5 -48t-14.5 -47.5t-15.5 -51q-9 28 -16 51.5t-13.5 46t-13 46t-13.5 52.5q-5 20 -8.5 36.5t-6.5 32.5t-5 32.5t-5 36.5h-69q3 -20 5.5 -36.5t5.5 -32t7 -32.5t9 -37q9 -38 17.5 -69t17.5 -61t20 -61
t26 -68v-240h69v241q13 36 23 66t18.5 59t17 59t17.5 67q5 21 9 38.5t7.5 34t6.5 34t7 38.5z" />
    <glyph glyph-name="z" unicode="z" horiz-adv-x="375" 
d="M314 -42v26h-170l158 611h-225v-23h144l-156 -614h249v0z" />
    <glyph glyph-name="braceleft" unicode="{" horiz-adv-x="306" 
d="M297 -172q-2 0 -11 0.5t-21 2.5t-24.5 6t-21.5 12q-16 14 -16 33v306l-0.5 9t-3 21.5t-8 26t-15.5 22.5q-15 14 -30.5 21.5t-38.5 13.5q25 6 41 14t31 22q9 8 14 19.5t7 22t2.5 18t0.5 9.5v252q0 11 2.5 21.5t10.5 17.5q11 10 25 14t26.5 5.5t21 1l8.5 -0.5
q-29 14 -59.5 15t-63.5 -17q-15 -9 -23 -20.5t-11.5 -23t-4 -20t-0.5 -9.5v-250q2 -17 -2 -29t-17 -26q-12 -14 -26 -21.5t-34 -14.5q20 -6 33.5 -14t24.5 -21q14 -14 18.5 -26.5t2.5 -29.5v-314v-8t3.5 -16.5t11.5 -20.5t24 -20q32 -18 62.5 -17.5t60.5 13.5z" />
    <glyph glyph-name="bar" unicode="|" horiz-adv-x="194" 
d="M132 -300v1000h-67v-1000h67z" />
    <glyph glyph-name="braceright" unicode="}" horiz-adv-x="321" 
d="M266 302q-20 7 -33 14.5t-26 21.5q-12 14 -16.5 26t-4.5 29v250q0 1 -0.5 9.5t-4 19.5t-11.5 23t-23 21q-32 18 -62 16.5t-59 -14.5q2 0 14 0.5t31.5 -4t33.5 -17.5q8 -7 11 -17t3 -21v-252q0 -2 0.5 -9.5t2.5 -18t7 -22t14 -19.5q14 -14 31 -22.5t41 -13.5
q-24 -6 -39 -13.5t-30 -21.5q-11 -9 -16.5 -22.5t-7.5 -26t-2.5 -21.5l-0.5 -9v-307q0 -18 -17 -33q-9 -8 -21.5 -12t-24 -6t-20.5 -2h-10q29 -13 59 -13.5t62 17.5q16 9 24.5 19.5t11.5 20.5t3 17v8v314q0 16 4 29t17 27q12 14 25.5 21t33.5 14z" />
    <glyph glyph-name="asciitilde" unicode="~" horiz-adv-x="471" 
d="M408 703l-28 20l-96 -45l-119 45l-109 -73l28 -20l96 47l119 -47z" />
    <glyph glyph-name="florin" unicode="&#x192;" horiz-adv-x="542" 
d="M476 739q3 10 0 20t-10 17.5t-17 12t-20 4.5q-30 0 -54.5 -29t-43 -73t-32.5 -97.5t-24 -102.5l-6 -30h-126l-3 -48h114l-72 -396q-6 -36 -13 -79t-15.5 -79.5t-20.5 -59t-28 -16.5q-6 2 -8.5 7t-5.5 10.5t-7 9.5t-13 4q-18 0 -30 -11.5t-18 -30.5q-5 -17 4 -32.5
t23 -20.5q30 -10 55 4.5t46 44t37 70t28.5 82.5t21 81.5t13.5 66.5l63 344h108l4 47h-102l5 23q8 35 12 81t9 84.5t13.5 61t25.5 12.5q10 -6 16 -15t18 -9q41 2 53 42z" />
    <glyph glyph-name="quotedblbase" unicode="&#x201e;" horiz-adv-x="198" 
d="M167 24q1 12 -6.5 25t-22.5 13q-14 0 -20.5 -13t-6.5 -24q0 -12 6.5 -24.5t20.5 -13.5q7 0 9 2q0 -1 -0.5 -8t-3.5 -13q-2 -3 -5.5 -8.5t-3.5 -6.5v-7q14 11 23 32t10 46zM75 24q2 12 -5 25t-22 13q-14 0 -20.5 -13t-6.5 -24q0 -12 6.5 -24.5t20.5 -13.5q5 0 7 0.5t4 1.5
q0 -1 -1.5 -8t-4.5 -13q-2 -3 -5.5 -8.5t-3.5 -6.5v-7q16 11 23 32t8 46z" />
    <glyph glyph-name="ellipsis" unicode="&#x2026;" horiz-adv-x="387" 
d="M332 -114q0 12 -6.5 25t-20.5 13t-20.5 -13t-6.5 -25q-2 -12 5.5 -25t21.5 -12q14 0 20.5 12.5t6.5 24.5zM224 -114q0 12 -6.5 25t-20.5 13t-20.5 -13t-6.5 -25q-2 -12 5.5 -25t21.5 -12q14 0 20.5 12.5t6.5 24.5zM116 -114q0 12 -6.5 25t-20.5 13t-20.5 -13t-6.5 -25
q-2 -12 5.5 -25t21.5 -12q14 0 20.5 12.5t6.5 24.5z" />
    <glyph glyph-name="dagger" unicode="&#x2020;" horiz-adv-x="300" 
d="M246 553v45h-60v102h-67v-102h-54v-45h54l25 -594h18l24 594h60z" />
    <glyph glyph-name="OE" unicode="&#x152;" horiz-adv-x="510" 
d="M251 -150h199v35h-132v401h119v35h-119v346h132v33h-199v-3q-12 3 -26.5 5t-32.5 2q-45 0 -70.5 -10t-38 -25t-15.5 -33.5t-3 -34.5v-674q0 -17 6.5 -32.5t21.5 -26.5t39.5 -17.5t59.5 -6.5t59 6zM249 -93q0 -17 -14 -28.5t-43 -12.5q-27 0 -43.5 12.5t-16.5 29.5v721
q0 10 2 20t8.5 18t18 12.5t31.5 4.5q21 0 32.5 -5.5t17 -13t6.5 -17.5t1 -19v-722z" />
    <glyph glyph-name="quoteleft" unicode="&#x2018;" horiz-adv-x="185" 
d="M122 645q0 12 -6.5 24.5t-20.5 12.5q-5 1 -7 0t-4 -1q0 1 1.5 7.5t4.5 13.5q2 3 5.5 8.5l3.5 5.5v7q-16 -11 -24 -31.5t-9 -45.5q-1 -12 6.5 -25t22.5 -13q14 0 20.5 13t6.5 24z" />
    <glyph glyph-name="quoteright" unicode="&#x2019;" horiz-adv-x="179" 
d="M120 666q0 12 -6.5 25t-20.5 13t-20.5 -13t-6.5 -24q0 -12 6.5 -24.5t20.5 -13.5q5 0 7 0.5t4 1.5q0 -1 -2 -8t-4 -13q-2 -3 -5.5 -8.5t-5.5 -6.5v-7q16 11 24 32t9 46z" />
    <glyph glyph-name="quotedblleft" unicode="&#x201c;" horiz-adv-x="272" 
d="M212 646q0 12 -6.5 24.5t-20.5 13.5q-5 0 -7 -0.5t-4 -1.5q0 1 1.5 8t4.5 13q2 3 5.5 8.5t3.5 6.5v7q-16 -11 -23 -32t-8 -46q-2 -12 5 -25t22 -13q14 0 20.5 13t6.5 24zM122 646q0 12 -6.5 24.5t-20.5 13.5q-7 0 -9 -2q0 1 0.5 8t3.5 13q2 3 5.5 8.5t3.5 6.5v7
q-14 -11 -23 -32t-10 -46q-1 -12 6.5 -25t22.5 -13q14 0 20.5 13t6.5 24z" />
    <glyph glyph-name="quotedblright" unicode="&#x201d;" horiz-adv-x="272" 
d="M212 666q1 12 -6.5 25t-22.5 13q-14 0 -20.5 -13t-6.5 -24q0 -12 6.5 -24.5t20.5 -13.5q7 0 9 2q0 -1 -0.5 -8t-3.5 -13q-2 -3 -5.5 -8.5t-3.5 -6.5v-7q14 11 23 32t10 46zM120 666q2 12 -5 25t-22 13q-14 0 -20.5 -13t-6.5 -24q0 -12 6.5 -24.5t20.5 -13.5q5 0 7 0.5
t4 1.5q0 -1 -1.5 -8t-4.5 -13q-2 -3 -5.5 -8.5t-3.5 -6.5v-7q16 11 23 32t8 46z" />
    <glyph glyph-name="bullet" unicode="&#x2022;" horiz-adv-x="219" 
d="M159 302q0 10 -2.5 22t-8 22t-14.5 16.5t-21 6.5t-21 -6t-15 -16t-9 -21.5t-3 -22.5t3 -22.5t9 -21t15 -15.5t21 -6t20.5 6t14 15.5t8.5 21t3 21.5z" />
    <glyph glyph-name="endash" unicode="&#x2013;" horiz-adv-x="479" 
d="M414 281v45h-348v-45h348z" />
    <glyph glyph-name="emdash" unicode="&#x2014;" horiz-adv-x="816" 
d="M750 281v45h-693v-45h693z" />
    <glyph glyph-name="trademark" unicode="&#x2122;" horiz-adv-x="630" 
d="M587 273v427h-45l-101 -375l-96 375h-46v-427h30v381l99 -380h27l100 378v-379h32zM276 663v37h-222v-36h95v-391h30v390h97z" />
    <glyph glyph-name="oe" unicode="&#x153;" horiz-adv-x="515" 
d="M266 -38v-3h199v35h-132v292h117v35h-117v241h131v33h-198v-4q-12 3 -26.5 5t-32.5 2q-45 0 -71 -10t-38.5 -25t-16 -33.5t-3.5 -34.5v-457q0 -17 7 -32.5t22.5 -26.5t40 -17.5t59.5 -6.5q17 0 32 2t27 5zM264 19q0 -17 -14 -28.5t-43 -12.5q-28 0 -44.5 12.5t-16.5 29.5
v502q0 10 2 20t9 17.5t18.5 12.5t31.5 5q21 0 32.5 -5.5t17 -13t6.5 -17.5t1 -19v-503z" />
    <glyph glyph-name="Ydieresis" unicode="&#x178;" horiz-adv-x="366" 
d="M266 781q0 13 -6 25.5t-20 12.5t-21 -12.5t-7 -24.5t6.5 -24.5t20.5 -12.5t20.5 12t6.5 24zM176 781q0 12 -6 25t-20 13t-21 -12.5t-7 -25.5q0 -12 6.5 -24.5t20.5 -12.5t20.5 12.5t6.5 24.5zM326 700h-50q-4 -26 -7 -47.5t-6 -42.5t-7 -42.5t-8 -47.5
q-7 -39 -13.5 -71.5t-13.5 -64t-14.5 -63.5t-15.5 -68q-8 38 -14.5 69.5t-12.5 61.5t-12.5 61.5t-14.5 69.5q-6 27 -9.5 49t-6 43t-5 43.5t-6.5 49.5h-69q4 -27 7 -49t6 -43.5t6.5 -43.5t8.5 -49q9 -51 18 -92t19 -80.5t20.5 -81t22.5 -91.5v-320h69v321q11 48 21 88
t19 78.5t18 78.5t18 89q6 29 10 52.5t7.5 45.5t6.5 45t8 52z" />
    <glyph glyph-name="exclamdown" unicode="&#xa1;" horiz-adv-x="186" 
d="M122 663q0 12 -6.5 25t-20.5 13t-20.5 -13t-6.5 -24q0 -12 6 -25t21 -13q14 0 20.5 12.5t6.5 24.5zM128 -150l-15 740h-39l-14 -740h68z" />
    <glyph glyph-name="cent" unicode="&#xa2;" horiz-adv-x="374" 
d="M314 41v82h-69v-104q0 -17 -14 -28.5t-45 -12.5q-27 0 -43.5 12.5t-16.5 29.5v502q0 10 2 20t8.5 17.5t18.5 12.5t31 5q21 0 33 -5.5t17.5 -13t7 -17.5t1.5 -19v-80h69v54q0 23 -6.5 45.5t-22.5 33.5q-8 6 -18 10t-19.5 6t-16.5 3.5t-10 1.5v72h-68v-72q-1 0 -8.5 -1
t-17.5 -3.5t-20.5 -6.5t-17.5 -10q-21 -18 -25.5 -37t-4.5 -43v-457q0 -38 31 -60q16 -11 32.5 -15t30.5 -6v-72h68v72q16 2 34 7t30 16q29 24 29 61z" />
    <glyph glyph-name="sterling" unicode="&#xa3;" horiz-adv-x="408" 
d="M342 -41v164h-60v-130h-127v293h117v35h-117v201q0 10 2 20t9 17.5t18.5 12.5t31.5 5t32 -5.5t18 -13t7.5 -17.5t1.5 -19v-80h67v54q0 19 -3 37t-15.5 32.5t-37.5 23.5t-68 9q-46 1 -72 -8t-38.5 -23.5t-15.5 -33.5t-3 -38v-174h-35v-35h35v-293h-35v-34h288z" />
    <glyph glyph-name="currency" unicode="&#xa4;" 
d="M344 542v60q0 19 -3 37.5t-16 33t-38 23t-69 8.5q-45 0 -71 -8.5t-38.5 -23t-16 -33.5t-3.5 -38v-229h67v257q0 10 2 20t8.5 18t18.5 12.5t31 4.5q21 0 33 -5.5t17.5 -13t7 -17.5t1.5 -19v-87h69zM352 328v44h-316v-44h316zM352 244v43h-316v-43h316zM344 -71v94h-69
v-116q0 -17 -14 -28.5t-45 -12.5q-27 0 -43.5 12.5t-16.5 29.5v336h-67v-317q0 -35 29 -58.5t100 -24.5q35 0 59 7t39 18.5t21.5 27t6.5 32.5z" />
    <glyph glyph-name="yen" unicode="&#xa5;" horiz-adv-x="554" 
d="M473 67v45h-155v57h155v46h-141q15 42 26.5 76.5t21.5 67.5t19.5 68t20.5 77q7 28 12.5 51.5t10 45.5t9 45t9.5 52h-65q-5 -26 -9.5 -47.5t-9 -42t-9.5 -42t-11 -47.5q-9 -39 -17.5 -72t-17 -64.5t-18.5 -63t-22 -67.5q-12 37 -22 68.5t-18.5 61.5t-16 61.5t-16.5 69.5
q-6 27 -10.5 49t-8.5 43.5t-8 43.5t-8 49h-91q4 -27 7.5 -49t7.5 -43t9 -43t12 -49q12 -51 22 -88t19.5 -69.5t20.5 -65.5t26 -76h-124v-47h142v-56h-142v-45h142v-219h93v219h155z" />
    <glyph glyph-name="brokenbar" unicode="&#xa6;" horiz-adv-x="979" 
d="M794 489l-65 47l64 50l-11 17l-76 -30l-12 77h-22l-10 -76l-77 28l-11 -19l67 -46l-65 -50l11 -18l75 30l13 -77h22l9 77l78 -28zM966 207l-438 227l-171 366l-37 -37l171 -364l-267 267l-48 -47l74 -74l19 20l452 -451l-20 -20l76 -76l48 47l-309 309l405 -212zM701 94
l-451 451l-21 -20l204 -371l-370 205l-42 -43l451 -451l47 48l-306 306l336 -181l-181 336l306 -307z" />
    <glyph glyph-name="section" unicode="&#xa7;" horiz-adv-x="297" 
d="M240 491v36q0 13 -2 26t-10.5 23t-26 16t-48.5 6q-29 0 -46 -6t-25.5 -16t-11 -22t-2.5 -25v-37v-18q0 -14 6 -35q3 -11 16 -25.5t27 -25.5q-10 -2 -18 -5t-15 -8q-14 -8 -17.5 -23t-3.5 -31v-37v-16t6 -36q5 -18 20.5 -32t33.5 -28.5t34 -30.5t22 -37q4 -14 5 -23t1 -23
v-53q0 -6 -1 -12.5t-4.5 -12.5t-11.5 -9.5t-22 -3.5q-26 0 -33.5 12t-7.5 26v62h-46v-44q0 -13 2 -25.5t11 -22.5t26.5 -16t47.5 -6t47 6t25.5 16t10.5 22.5t2 25.5v37q0 21 -2 33t-11 30q-6 13 -12.5 21.5t-17.5 19.5l5 1.5t12 4.5t14 8.5t11 14.5q5 10 5.5 19.5t0.5 17.5
v37q0 22 -2.5 34t-9.5 29q-8 19 -22.5 32.5t-30 26t-30 25t-22.5 29.5q-7 14 -6.5 25t0.5 13v65q0 6 1 13t5.5 12.5t13 9t22.5 3.5q26 0 32.5 -12t6.5 -26v-55h46zM189 212v-7t-1 -12q-2 -8 -9.5 -11.5l-7.5 -3.5l-21 17q-1 1 -6.5 6t-14 15t-13.5 20q-6 13 -6 24v14v65
q0 24 12 32l7.5 3l2.5 1l21 -18q21 -18 30 -46q5 -13 5.5 -22.5t0.5 -23.5v-53z" />
    <glyph glyph-name="dieresis" unicode="&#xa8;" horiz-adv-x="272" 
d="M210 666q2 12 -4.5 25t-20.5 13q-15 0 -22 -12.5t-7 -24.5t6.5 -25t20.5 -13t20.5 12.5t6.5 24.5zM120 666q0 12 -5.5 25t-19.5 13q-15 0 -22 -13t-7 -25t6.5 -24.5t20.5 -12.5t20.5 12.5t6.5 24.5z" />
    <glyph glyph-name="copyright" unicode="&#xa9;" horiz-adv-x="713" 
d="M360 -154q77 0 135 37t96.5 97t57.5 137t19 157t-19 157t-57.5 137t-96.5 97t-135 37t-135 -37t-96.5 -97t-57.5 -137t-19 -157t19 -157t57.5 -137t96.5 -97t135 -37zM360 -109q-69 0 -121 33t-86.5 86.5t-51.5 122.5t-17 140q0 72 17 141t51.5 122.5t86.5 86.5t121 33
t120.5 -33t86 -86.5t52 -122.5t17.5 -141q0 -71 -17.5 -140t-52 -122.5t-86 -86.5t-120.5 -33zM513 188h-37q-5 -32 -16.5 -59t-28 -46t-36.5 -28.5t-41 -6.5q-38 6 -61 26.5t-35.5 51t-17 68t-4.5 78.5q0 42 6.5 82t21.5 71.5t39 51.5t59 21q36 2 67.5 -24.5t40.5 -78.5
l1 -16h38l-2 20q-3 35 -16.5 62t-33.5 45t-44.5 27.5t-49.5 10.5q-41 2 -72 -21t-52 -62t-31 -88.5t-10 -101.5q0 -50 8 -96t26 -82.5t47 -59.5t72 -27q31 -3 58.5 10t48.5 37.5t35 59t20 75.5z" />
    <glyph glyph-name="ordfeminine" unicode="&#xaa;" horiz-adv-x="239" 
d="M179 427v269q0 9 -1.5 18.5t-7.5 16.5t-18.5 11.5t-34.5 4.5q-23 0 -35.5 -4.5t-19 -11.5t-8 -16.5t-1.5 -18.5v-269h34v163h59v-163h33zM201 378v22h-174v-22h174zM146 607h-59v102q0 11 5 19.5t25 8.5q20 -1 24.5 -10t4.5 -18v-102z" />
    <glyph glyph-name="guillemotleft" unicode="&#xab;" horiz-adv-x="638" 
d="M573 314v121l-225 -185v-124l222 -191v128l-156 123zM291 314v121l-225 -185v-124l222 -191v128l-156 123z" />
    <glyph glyph-name="logicalnot" unicode="&#xac;" horiz-adv-x="899" 
d="M836 -150v365h-771v-65h706v-300h65z" />
    <glyph glyph-name="registered" unicode="&#xae;" horiz-adv-x="720" 
d="M360 -150q77 0 135 37t96.5 97t57.5 137t19 157q0 81 -19 158t-57.5 137t-96.5 97t-135 37t-135.5 -37t-97 -97t-58 -137t-19.5 -158q0 -80 19.5 -157t58 -137t97 -97t135.5 -37zM360 -104q-69 0 -121 33t-86.5 86.5t-51.5 122.5t-17 140q0 72 17 141t51.5 122.5
t86.5 86.5t121 33t120.5 -33t85.5 -86.5t51 -122.5t17 -141q0 -71 -17 -140t-51 -122.5t-85.5 -86.5t-120.5 -33zM507 15q-2 5 -4 9.5t-3 10.5q-10 28 -10.5 52t1 47t1 45.5t-9.5 46.5q-8 19 -16.5 26t-19.5 16q29 17 46 48t15 79q-2 43 -14.5 69.5t-31.5 41t-42.5 19.5
t-47.5 5h-135v-515h36v233h99q16 0 28 -0.5t26 -11.5q19 -15 25 -42t6.5 -58.5t0.5 -63.5t8 -56q2 -2 2.5 -1.5t2.5 0.5h37zM471 390q1 -31 -7.5 -50t-22 -29.5t-31 -14.5t-35.5 -4h-103v194h105q17 0 34 -4t30 -14.5t21.5 -29t8.5 -48.5z" />
    <glyph glyph-name="degree" unicode="&#xb0;" horiz-adv-x="236" 
d="M173 622q0 13 -3 27t-9.5 26t-16.5 19.5t-24 7.5t-24 -7.5t-17 -19t-10.5 -25t-3.5 -26.5q0 -12 3.5 -26t10 -26t16.5 -19.5t24 -7.5t24 8t17 19t10 24.5t3 25.5zM152 623q0 -9 -3 -19.5t-8 -19.5t-10.5 -14.5t-11.5 -5.5t-11.5 6t-10.5 15t-7.5 19.5t-2.5 19.5t2.5 19
t7 18.5t10.5 14t12 5.5q16 0 24.5 -20t8.5 -38z" />
    <glyph glyph-name="plusminus" unicode="&#xb1;" horiz-adv-x="657" 
d="M575 161v78h-183v190h-111v-190h-183v-78h183v-189h108v189h186zM599 -150v67h-533v-67h533z" />
    <glyph glyph-name="acute" unicode="&#xb4;" horiz-adv-x="270" 
d="M222 690l-48 31l-109 -73l30 -19z" />
    <glyph glyph-name="mu" unicode="&#xb5;" horiz-adv-x="479" 
d="M441 90h-13l-6 -33q-4 -22 -11 -36t-21 -19q-11 -3 -19 5.5t-14 24t-9 35t-3 37.5v490h-58v-435q0 -27 -9 -51t-22.5 -42t-30 -29t-30.5 -11q-15 0 -27 11.5t-20.5 30.5t-13.5 43t-5 50v433h-60v-629q0 -11 -0.5 -18t-2.5 -17q-2 -25 -6 -43t-7.5 -35.5t-6 -38
t-1.5 -50.5q1 -28 10 -50.5t26 -23.5q9 0 15.5 7t11 18.5t7 26.5t2.5 30q0 35 -4.5 60t-9.5 46.5t-9 44.5t-4 53v44q9 -19 20 -32.5t22.5 -22.5t22.5 -13.5t19 -4.5q18 0 43.5 25.5t48.5 63.5l19 32q1 -49 20.5 -83.5t42.5 -40.5q11 -3 25 4t27.5 21t23.5 35.5t13 48.5z" />
    <glyph glyph-name="paragraph" unicode="&#xb6;" horiz-adv-x="492" 
d="M431 -42v638h-237h-12q-10 0 -25 -1.5t-32.5 -5.5t-32.5 -13q-26 -16 -29.5 -37t-3.5 -46v-111q0 -8 0.5 -17.5t3.5 -19.5t9.5 -19t17.5 -16q16 -10 34.5 -14.5t34.5 -6.5t27 -2h12h47v-329h67v615h57v-615h62zM246 310h-37q-2 0 -12 1t-27 5.5t-30 13.5q-11 8 -12.5 17
t-1.5 17v153q0 19 4.5 30.5t21.5 17.5q10 3 20.5 5.5t30.5 2.5h43v-263z" />
    <glyph glyph-name="ordmasculine" unicode="&#xba;" horiz-adv-x="239" 
d="M183 465v227q0 7 -1.5 16t-7.5 17t-18 13t-34 5q-23 0 -35.5 -5t-19.5 -12.5t-8.5 -16.5t-1.5 -17v-229q0 -17 14.5 -28.5t50.5 -12.5q35 0 48 13t13 30zM207 370v22h-174v-22h174zM150 453q0 -19 -28 -20q-14 0 -23 6.5t-9 14.5v251q0 10 6 18.5t26 8.5t24 -9t4 -18
v-252z" />
    <glyph glyph-name="guillemotright" unicode="&#xbb;" horiz-adv-x="633" 
d="M570 126v124l-225 185v-121l159 -128l-156 -123v-128zM288 126v124l-226 185v-121l160 -128l-156 -123v-128z" />
    <glyph glyph-name="questiondown" unicode="&#xbf;" 
d="M216 664q0 12 -6.5 24.5t-20.5 12.5t-20.5 -12t-6.5 -25q0 -12 6.5 -25t20.5 -13t20.5 13t6.5 25zM315 -51v157h-67v-185q0 -1 -0.5 -9.5t-6 -18.5t-18 -18.5t-37.5 -8.5q-20 0 -31 5t-17 13.5t-7.5 18t-1.5 18.5v151v8t1 20t1.5 25.5t2.5 24.5q4 33 13.5 57t20 47.5
t20 51t13.5 68.5q4 42 4.5 76.5t0.5 45.5v96h-36v-97l-1 -11.5t-2.5 -27.5t-4.5 -34t-6 -32q-8 -34 -21 -61t-26.5 -52.5t-25 -52.5t-17.5 -61q-2 -11 -3 -23.5t-1.5 -23.5t-1 -19l-0.5 -8v-141q0 -19 3 -37.5t16 -32.5t38 -23t69 -9q45 0 71 8.5t38.5 23t16 33t3.5 38.5z
" />
    <glyph glyph-name="Agrave" unicode="&#xc0;" horiz-adv-x="371" 
d="M293 764l-110 74l-48 -32l128 -61zM321 -150v752q0 19 -3 37.5t-15 32.5t-37 23t-69 9q-45 0 -71 -8.5t-38.5 -23t-16 -33.5t-3.5 -38v-751h67v435h119v-435h67zM254 320h-119v309q0 10 2 20t8.5 18t18.5 12.5t31 4.5q21 0 33 -5.5t17.5 -13t7 -17.5t1.5 -19v-309z" />
    <glyph glyph-name="Aacute" unicode="&#xc1;" horiz-adv-x="374" 
d="M278 806l-48 31l-110 -73l30 -20zM315 -150v752q0 19 -3 37.5t-15 32.5t-37 23t-69 9q-45 0 -71 -8.5t-38.5 -23t-16 -33.5t-3.5 -38v-751h67v435h119v-435h67zM248 320h-119v309q0 10 2 20t8.5 18t18.5 12.5t31 4.5q21 0 33 -5.5t17.5 -13t7 -17.5t1.5 -19v-309z" />
    <glyph glyph-name="Acircumflex" unicode="&#xc2;" horiz-adv-x="395" 
d="M362 764l-110 74h-94l-110 -74l30 -19l128 61l127 -61zM315 -150v752q0 19 -3 37.5t-15 32.5t-37 23t-69 9q-45 0 -71 -8.5t-38.5 -23t-16 -33.5t-3.5 -38v-751h67v435h119v-435h67zM248 320h-119v309q0 10 2 20t8.5 18t18.5 12.5t31 4.5q21 0 33 -5.5t17.5 -13t7 -17.5
t1.5 -19v-309z" />
    <glyph glyph-name="Atilde" unicode="&#xc3;" horiz-adv-x="401" 
d="M377 817l-29 20l-96 -45l-118 45l-110 -73l29 -20l96 47l118 -47zM329 -150v752q0 19 -3 37.5t-15 32.5t-36.5 23t-68.5 9q-46 0 -72 -8.5t-38.5 -23t-15.5 -33.5t-3 -38v-751h67v435h119v-435h66zM263 320h-119v309q0 10 2 20t8.5 18t18 12.5t31.5 4.5q21 0 33 -5.5
t17.5 -13t7 -17.5t1.5 -19v-309z" />
    <glyph glyph-name="Adieresis" unicode="&#xc4;" horiz-adv-x="372" 
d="M266 777q0 12 -6 25t-20 13t-21 -13t-7 -25t6.5 -24.5t20.5 -12.5t20.5 12.5t6.5 24.5zM176 776q0 12 -6 25t-20 13t-21 -12.5t-7 -24.5t6.5 -25t20.5 -13t20.5 13t6.5 24zM315 -150v752q0 19 -3 37.5t-15 32.5t-37 23t-69 9q-45 0 -71 -8.5t-38.5 -23t-16 -33.5
t-3.5 -38v-751h67v435h119v-435h67zM248 320h-119v309q0 10 2 20t8.5 18t18.5 12.5t31 4.5q21 0 33 -5.5t17.5 -13t7 -17.5t1.5 -19v-309z" />
    <glyph glyph-name="Aring" unicode="&#xc5;" horiz-adv-x="375" 
d="M242 814q0 13 -3 27t-10 26t-17 19.5t-23 7.5q-14 0 -24.5 -7.5t-17 -19t-10 -25.5t-3.5 -26t3.5 -26t10 -26t16.5 -19.5t24 -7.5q13 0 23.5 7.5t17 19t10 25t3.5 25.5zM314 -150v752q0 19 -3 37.5t-15.5 32.5t-37.5 23t-69 9q-45 0 -71 -8.5t-38.5 -23t-16 -33.5
t-3.5 -38v-751h68v435h118v-435h68zM219 815q0 -9 -2.5 -19.5t-7 -19.5t-10 -15t-11.5 -6t-12 6t-10.5 15t-7 19.5t-2.5 19.5t2.5 19t7 19t10.5 14.5t13 5.5t13 -6t9.5 -14.5t5.5 -18.5t2 -19zM246 320h-118v309q0 10 2 20t9 18t18.5 12.5t31.5 4.5t31.5 -5.5t17 -13
t7 -17.5t1.5 -19v-309z" />
    <glyph glyph-name="AE" unicode="&#xc6;" horiz-adv-x="510" 
d="M320 -151v1h133v35h-132v401h119v35h-119v346h131v33h-198v-3q-24 6 -59 6q-45 0 -71 -8.5t-38.5 -23t-16 -33.5t-3.5 -38v-751h68v435h118v-435h68zM252 319h-118v309q0 10 2 19.5t9 17.5t18.5 13t31.5 5t31.5 -5.5t17 -13.5t7 -17.5t1.5 -18.5v-309z" />
    <glyph glyph-name="Ccedilla" unicode="&#xc7;" horiz-adv-x="378" 
d="M314 -71v194h-69v-216q0 -17 -14 -28.5t-45 -12.5q-27 0 -43.5 12.5t-16.5 29.5v721q0 10 2 20t8.5 18t18.5 12.5t31 4.5q21 0 33 -5.5t17.5 -13t7 -17.5t1.5 -19v-187h69v160q0 19 -3 37.5t-16 33t-38 23t-69 8.5q-45 0 -71 -8.5t-38.5 -23t-16 -33.5t-3.5 -38v-674
q0 -35 29 -58.5t100 -24.5q35 0 59 7t39 18.5t21.5 27t6.5 32.5zM236 -213l-48 31l-110 -73l30 -20z" />
    <glyph glyph-name="Egrave" unicode="&#xc8;" horiz-adv-x="318" 
d="M246 764l-109 74l-48 -32l127 -61zM264 -150v35h-132v401h117v35h-117v346h131v33h-198v-850h199z" />
    <glyph glyph-name="Eacute" unicode="&#xc9;" horiz-adv-x="320" 
d="M257 806l-48 31l-110 -73l30 -20zM264 -150v35h-132v401h117v35h-117v346h131v33h-198v-850h199z" />
    <glyph glyph-name="Ecircumflex" unicode="&#xca;" horiz-adv-x="374" 
d="M342 764l-111 74h-94l-110 -74l30 -19l128 61l127 -61zM264 -150v35h-132v401h117v35h-117v346h131v33h-198v-850h199z" />
    <glyph glyph-name="Edieresis" unicode="&#xcb;" horiz-adv-x="318" 
d="M245 781q1 13 -5.5 25.5t-20.5 12.5t-21 -12.5t-7 -24.5t6.5 -24.5t20.5 -12.5t20.5 12t6.5 24zM155 781q0 12 -6 25t-20 13t-21 -12.5t-7 -25.5q0 -12 6.5 -24.5t20.5 -12.5t20.5 12.5t6.5 24.5zM264 -150v35h-132v401h117v35h-117v346h131v33h-198v-850h199z" />
    <glyph glyph-name="Igrave" unicode="&#xcc;" horiz-adv-x="207" 
d="M177 764l-109 74l-48 -32l127 -61zM132 -150v850h-67v-850h67z" />
    <glyph glyph-name="Iacute" unicode="&#xcd;" horiz-adv-x="194" 
d="M174 806l-48 31l-109 -73l30 -20zM132 -150v850h-67v-850h67z" />
    <glyph glyph-name="Icircumflex" unicode="&#xce;" horiz-adv-x="197" 
d="M255 764l-109 74h-96l-110 -74l30 -19l128 61l127 -61zM128 -150v850h-66v-850h66z" />
    <glyph glyph-name="Idieresis" unicode="&#xcf;" horiz-adv-x="201" 
d="M168 781q2 13 -4.5 25.5t-20.5 12.5q-15 0 -21 -12.5t-6 -24.5t5.5 -24.5t19.5 -12.5q15 0 21 12t6 24zM78 781q0 12 -5.5 25t-19.5 13q-15 0 -21 -12.5t-6 -25.5q0 -12 6 -24.5t21 -12.5q14 0 19.5 12.5t5.5 24.5zM132 -150v850h-67v-850h67z" />
    <glyph glyph-name="Ntilde" unicode="&#xd1;" horiz-adv-x="410" 
d="M384 817l-28 20l-96 -45l-119 45l-109 -73l28 -20l96 47l119 -47zM336 -150v850h-67v-514l-125 514h-61v-850h67v619l119 -457v-162h67z" />
    <glyph glyph-name="Ograve" unicode="&#xd2;" 
d="M288 764l-109 74l-48 -32l127 -61zM317 -71v673q0 15 -3 33t-15.5 33t-37.5 25.5t-69 10.5q-45 0 -70.5 -10t-38 -25t-15.5 -33.5t-3 -34.5v-674q0 -17 6.5 -32.5t21.5 -26.5t39.5 -17.5t59.5 -6.5q36 0 60 6.5t38.5 18.5t20.5 27.5t6 32.5zM249 -93q0 -17 -14 -28.5
t-43 -12.5q-27 0 -43.5 12.5t-16.5 29.5v721q0 10 2 20t8.5 18t18 12.5t31.5 4.5q21 0 32.5 -5.5t17 -13t6.5 -17.5t1 -19v-722z" />
    <glyph glyph-name="Oacute" unicode="&#xd3;" 
d="M291 806l-48 31l-109 -73l30 -20zM317 -71v673q0 15 -3 33t-15.5 33t-37.5 25.5t-69 10.5q-45 0 -70.5 -10t-38 -25t-15.5 -33.5t-3 -34.5v-674q0 -17 6.5 -32.5t21.5 -26.5t39.5 -17.5t59.5 -6.5q36 0 60 6.5t38.5 18.5t20.5 27.5t6 32.5zM249 -93q0 -17 -14 -28.5
t-43 -12.5q-27 0 -43.5 12.5t-16.5 29.5v721q0 10 2 20t8.5 18t18 12.5t31.5 4.5q21 0 32.5 -5.5t17 -13t6.5 -17.5t1 -19v-722z" />
    <glyph glyph-name="Ocircumflex" unicode="&#xd4;" horiz-adv-x="378" 
d="M369 764l-109 74h-96l-110 -74l30 -19l128 61l127 -61zM317 -71v673q0 15 -3 33t-15.5 33t-37.5 25.5t-69 10.5q-45 0 -70.5 -10t-38 -25t-15.5 -33.5t-3 -34.5v-674q0 -17 6.5 -32.5t21.5 -26.5t39.5 -17.5t59.5 -6.5q36 0 60 6.5t38.5 18.5t20.5 27.5t6 32.5zM249 -93
q0 -17 -14 -28.5t-43 -12.5q-27 0 -43.5 12.5t-16.5 29.5v721q0 10 2 20t8.5 18t18 12.5t31.5 4.5q21 0 32.5 -5.5t17 -13t6.5 -17.5t1 -19v-722z" />
    <glyph glyph-name="Otilde" unicode="&#xd5;" horiz-adv-x="392" 
d="M375 817l-30 20l-96 -45l-117 45l-111 -73l30 -20l96 47l119 -47zM323 -68v673q0 15 -3 32.5t-15.5 33t-37.5 26t-69 10.5q-45 0 -70.5 -10t-38 -25.5t-15.5 -34t-3 -34.5v-674q0 -17 6.5 -32.5t21.5 -26.5t39.5 -17.5t59.5 -6.5q36 0 60 6.5t38.5 18.5t20.5 28t6 33z
M255 -91q0 -17 -14 -28.5t-43 -12.5q-27 0 -43.5 12.5t-16.5 29.5v721q0 10 2 20t8.5 17.5t18 12.5t31.5 5q21 0 32.5 -5.5t17 -13t6.5 -17.5t1 -19v-722z" />
    <glyph glyph-name="Odieresis" unicode="&#xd6;" horiz-adv-x="378" 
d="M267 781q2 13 -4.5 25.5t-20.5 12.5q-15 0 -22 -12.5t-7 -24.5t6.5 -24.5t20.5 -12.5t20.5 12t6.5 24zM177 781q0 12 -5.5 25t-19.5 13q-15 0 -22 -12.5t-7 -25.5q0 -12 6.5 -24.5t20.5 -12.5t20.5 12.5t6.5 24.5zM315 -91v673q0 15 -3 32.5t-15 32.5t-37 25.5t-69 10.5
q-45 0 -71 -9.5t-38.5 -25t-16 -34t-3.5 -34.5v-674q0 -35 29 -58.5t100 -24.5q70 0 97 25.5t27 60.5zM248 -114q0 -17 -14 -28.5t-43 -12.5q-27 0 -44.5 12.5t-17.5 29.5v721q0 10 2 20t9 17.5t19 12.5t32 5q21 0 32.5 -5.5t17 -13t6.5 -17.5t1 -19v-722z" />
    <glyph glyph-name="Oslash" unicode="&#xd8;" horiz-adv-x="443" 
d="M401 731h-72l-12 -45q-11 5 -19.5 8.5t-17.5 5.5t-20.5 3t-28.5 1q-45 0 -70.5 -10t-38 -25t-15.5 -33.5t-3 -34.5v-639l-45 -148h69l13 47q22 -11 47 -14t43 -3q36 0 60 6.5t38.5 18.5t20.5 27.5t6 32.5v654zM288 591l-118 -395v433q0 10 2 20t9 18t18.5 12.5t31.5 4.5
t31.5 -5.5t17 -13t7 -17.5t1.5 -19v-38zM288 -93q0 -17 -14 -28.5t-43 -12.5q-27 0 -44 12.5t-17 29.5v51l118 398v-450z" />
    <glyph glyph-name="Ugrave" unicode="&#xd9;" horiz-adv-x="387" 
d="M267 764l-109 74l-48 -32l127 -61zM315 -73v772h-67v-791q0 -17 -15 -29.5t-42 -12.5q-29 0 -44 12t-15 29v792h-67v-770q0 -17 6.5 -32.5t21.5 -27t39 -18.5t59 -7q36 0 60 6.5t38 18t20 26.5t6 32z" />
    <glyph glyph-name="Uacute" unicode="&#xda;" 
d="M285 806l-48 31l-109 -73l28 -20zM315 -73v772h-67v-791q0 -17 -15 -29.5t-42 -12.5q-29 0 -44 12t-15 29v792h-67v-770q0 -17 6.5 -32.5t21.5 -27t39 -18.5t59 -7q36 0 60 6.5t38 18t20 26.5t6 32z" />
    <glyph glyph-name="Ucircumflex" unicode="&#xdb;" horiz-adv-x="395" 
d="M362 764l-110 74h-94l-110 -74l30 -19l128 61l127 -61zM315 -73v772h-67v-791q0 -17 -15 -29.5t-42 -12.5q-29 0 -44 12t-15 29v792h-67v-770q0 -17 6.5 -32.5t21.5 -27t39 -18.5t59 -7q36 0 60 6.5t38 18t20 26.5t6 32z" />
    <glyph glyph-name="Udieresis" unicode="&#xdc;" horiz-adv-x="377" 
d="M269 780q1 12 -5.5 25t-20.5 13t-21 -12.5t-7 -24.5t6.5 -25t20.5 -13t20.5 12.5t6.5 24.5zM179 780q0 12 -6 25t-20 13t-20.5 -13t-6.5 -25t6 -24.5t20 -12.5t20.5 12.5t6.5 24.5zM315 -73v772h-67v-791q0 -17 -15 -29.5t-42 -12.5q-29 0 -44 12t-15 29v792h-67v-770
q0 -17 6.5 -32.5t21.5 -27t39 -18.5t59 -7q36 0 60 6.5t38 18t20 26.5t6 32z" />
    <glyph glyph-name="germandbls" unicode="&#xdf;" horiz-adv-x="434" 
d="M371 53v145q0 23 -3 41t-24 37q-11 10 -26 16.5t-28.5 9.5t-24 4t-13.5 1q17 5 27 11t21 17t14.5 22t3.5 25v111q0 19 -3 37.5t-16 33t-38.5 23t-71.5 8.5q-49 0 -74.5 -13t-36.5 -28t-12 -28t-1 -14v-554h67v556q0 10 1.5 21t7.5 20t18.5 14.5t34.5 5.5q26 0 38 -9
t16.5 -20t3.5 -20t-1 -10v-123v-9q0 -7 -1.5 -16.5t-4 -19t-8.5 -14.5q-14 -10 -24 -11t-21 -2l-16 -1v-33h43q18 0 29.5 -2.5t27.5 -11.5t21 -26t5 -36v-176q0 -12 -2 -23t-13 -19q-7 -5 -17 -7.5t-19.5 -3.5t-16.5 -1h-7h-53v-23h57h12t27.5 1.5t35 6.5t35.5 15
q22 13 26 34.5t4 37.5z" />
    <glyph glyph-name="agrave" unicode="&#xe0;" horiz-adv-x="377" 
d="M291 662l-111 73l-46 -31l126 -62zM332 -42v539q0 19 -3 37.5t-15 32.5t-37 23t-70 9t-71 -8.5t-38.5 -23t-16 -33.5t-3.5 -38v-538h68v327h118v-327h68zM264 320h-118v204q0 10 2 19.5t9 17.5t18.5 13t31.5 5q21 0 32.5 -5.5t17 -13t6.5 -17.5t1 -19v-204z" />
    <glyph glyph-name="aacute" unicode="&#xe1;" horiz-adv-x="377" 
d="M296 703l-48 31l-110 -73l30 -20zM332 -42v539q0 19 -3 37.5t-15 32.5t-37 23t-70 9t-71 -8.5t-38.5 -23t-16 -33.5t-3.5 -38v-538h68v327h118v-327h68zM264 320h-118v204q0 10 2 19.5t9 17.5t18.5 13t31.5 5q21 0 32.5 -5.5t17 -13t6.5 -17.5t1 -19v-204z" />
    <glyph glyph-name="acircumflex" unicode="&#xe2;" 
d="M350 662l-110 73h-94l-110 -73l30 -20l126 62l129 -62zM312 -42v539q0 19 -3 37.5t-15 32.5t-37 23t-69 9q-45 0 -71 -8.5t-38.5 -23t-16 -33.5t-3.5 -38v-538h67v327h119v-327h67zM245 320h-119v204q0 20 11 37.5t49 17.5q21 0 33 -5.5t17.5 -13t7 -17.5t1.5 -19v-204z
" />
    <glyph glyph-name="atilde" unicode="&#xe3;" horiz-adv-x="408" 
d="M383 716l-30 20l-96 -45l-119 45l-109 -73l30 -20l96 46l117 -46zM338 -42v539q0 19 -3 37.5t-15.5 32.5t-37.5 23t-69 9q-45 0 -71 -8.5t-38.5 -23t-16 -33.5t-3.5 -38v-538h68v327h118v-327h68zM270 320h-118v204q0 20 11 37.5t49 17.5q21 0 32.5 -5.5t17 -13t7 -17.5
t1.5 -19v-204z" />
    <glyph glyph-name="adieresis" unicode="&#xe4;" horiz-adv-x="374" 
d="M269 679q1 12 -5.5 25t-20.5 13t-21 -12.5t-7 -25.5q0 -12 6.5 -24.5t20.5 -12.5t20.5 12.5t6.5 24.5zM179 678q0 12 -6 25t-20 13t-20.5 -12.5t-6.5 -24.5t6 -25t20 -13t20.5 13t6.5 24zM312 -42v539q0 19 -3 37.5t-15 32.5t-37 23t-69 9q-45 0 -71 -8.5t-38.5 -23
t-16 -33.5t-3.5 -38v-538h67v327h119v-327h67zM245 320h-119v204q0 20 11 37.5t49 17.5q21 0 33 -5.5t17.5 -13t7 -17.5t1.5 -19v-204z" />
    <glyph glyph-name="aring" unicode="&#xe5;" 
d="M243 717q0 13 -2.5 27t-9 26t-16.5 19.5t-24 7.5t-23.5 -7.5t-16.5 -19t-10.5 -25.5t-3.5 -26q0 -13 3 -27t10 -25.5t17 -19t24 -7.5q13 0 23 7.5t16 19t9.5 25t3.5 25.5zM312 -42v539q0 19 -3 37.5t-15 32.5t-37 23t-69 9q-45 0 -71 -8.5t-38.5 -23t-16 -33.5t-3.5 -38
v-538h67v327h119v-327h67zM222 717q0 -9 -2.5 -19.5t-7 -19t-10 -14.5t-11.5 -6t-12 6t-10.5 15t-7.5 20t-3 20t3 19t7.5 18.5t10.5 14t12 5.5q8 0 14 -5.5t9.5 -14.5t5.5 -19.5t2 -19.5zM245 320h-119v204q0 20 11 37.5t49 17.5q21 0 33 -5.5t17.5 -13t7 -17.5t1.5 -19
v-204z" />
    <glyph glyph-name="ae" unicode="&#xe6;" horiz-adv-x="515" 
d="M267 -42v-1h200v35h-132v292h117v34h-117v242h130v32h-195q-12 3 -27.5 5t-35.5 2q-45 0 -71 -8.5t-38.5 -23t-16 -33.5t-3.5 -38v-538h68v327h118v-327h3zM264 320h-118v204q0 10 2 19.5t9 17.5t18.5 13t31.5 5q21 0 32.5 -5.5t17 -13t6.5 -17.5t1 -19v-204z" />
    <glyph glyph-name="ccedilla" unicode="&#xe7;" horiz-adv-x="375" 
d="M333 41v82h-69v-104q0 -17 -14 -28.5t-43 -12.5q-28 0 -44.5 12.5t-16.5 29.5v502q0 10 2 20t9 17.5t18.5 12.5t31.5 5q21 0 32.5 -5.5t17 -13t6.5 -17.5t1 -19v-80h69v54q0 19 -3 37.5t-15.5 32.5t-37.5 23t-70 9t-71 -8.5t-38.5 -23.5t-16 -33.5t-3.5 -37.5v-457
q0 -17 7 -32.5t22.5 -26.5t40 -17.5t59.5 -6.5t59 7t39 19t21.5 27.5t6.5 32.5zM248 -98l-47 32l-111 -74l32 -20z" />
    <glyph glyph-name="egrave" unicode="&#xe8;" horiz-adv-x="318" 
d="M234 662l-111 73l-46 -31l126 -62zM263 -41v35h-132v292h117v35h-117v241h132v33h-200v-636h200z" />
    <glyph glyph-name="eacute" unicode="&#xe9;" horiz-adv-x="323" 
d="M258 703l-46 31l-111 -73l30 -20zM263 -41v35h-134v292h119v35h-119v241h132v33h-199v-636h201z" />
    <glyph glyph-name="ecircumflex" unicode="&#xea;" horiz-adv-x="362" 
d="M342 662l-111 73h-94l-110 -73l30 -20l128 62l127 -62zM302 -41v35h-132v292h117v35h-117v241h130v33h-198v-636h200z" />
    <glyph glyph-name="edieresis" unicode="&#xeb;" horiz-adv-x="324" 
d="M243 677q0 12 -5.5 25t-19.5 13q-15 0 -22 -13t-7 -25t6.5 -24.5t20.5 -12.5t20.5 12t6.5 25zM153 676q0 12 -5.5 25t-19.5 13q-15 0 -22 -12.5t-7 -24.5q0 -13 6.5 -25.5t20.5 -12.5t20.5 12.5t6.5 24.5zM263 -41v35h-134v292h119v35h-119v241h132v33h-199v-636h201z
" />
    <glyph glyph-name="igrave" unicode="&#xec;" horiz-adv-x="215" 
d="M183 659l-109 74l-48 -32l127 -61zM146 -42v637h-68v-637h68z" />
    <glyph glyph-name="iacute" unicode="&#xed;" horiz-adv-x="216" 
d="M185 701l-47 31l-111 -73l30 -20zM144 -42v637h-67v-637h67z" />
    <glyph glyph-name="icircumflex" unicode="&#xee;" horiz-adv-x="213" 
d="M254 659l-110 74h-96l-110 -74l30 -19l128 61l128 -61zM140 -42v637h-68v-637h68z" />
    <glyph glyph-name="idieresis" unicode="&#xef;" horiz-adv-x="225" 
d="M185 677q0 12 -6.5 25t-20.5 13t-20.5 -13t-6.5 -25t6.5 -24.5t20.5 -12.5t20.5 12t6.5 25zM95 676q0 12 -6 25t-20 13t-21 -12.5t-7 -24.5q0 -13 6.5 -25.5t20.5 -12.5t20.5 12.5t6.5 24.5zM150 -42v637h-67v-637h67z" />
    <glyph glyph-name="ntilde" unicode="&#xf1;" horiz-adv-x="405" 
d="M377 713l-29 21l-96 -45l-118 45l-110 -74l29 -20l96 47l118 -47zM333 -42v638h-66v-302l-126 302h-60v-638h66v494l120 -258v-236h66z" />
    <glyph glyph-name="ograve" unicode="&#xf2;" horiz-adv-x="377" 
d="M278 659l-110 74l-46 -32l126 -61zM318 41v455q0 15 -3 32.5t-15 33t-37 26t-69 10.5q-45 0 -71 -10t-38.5 -25t-16 -33.5t-3.5 -34.5v-457q0 -35 29 -59t100 -24q35 0 58.5 7t38 19t21 27.5t6.5 32.5zM251 19q0 -17 -14 -28.5t-45 -12.5q-27 0 -43.5 12.5t-16.5 29.5
v502q0 10 2 20t8.5 17.5t18.5 12.5t31 5q21 0 33 -5.5t17.5 -13t7 -17.5t1.5 -19v-503z" />
    <glyph glyph-name="oacute" unicode="&#xf3;" horiz-adv-x="377" 
d="M293 701l-48 31l-110 -73l29 -20zM315 41v455q0 15 -3 32.5t-15 33t-37 26t-69 10.5q-45 0 -71 -10t-38.5 -25t-16 -33.5t-3.5 -34.5v-457q0 -35 28.5 -59t100.5 -24q35 0 58.5 7t38 19t21 27.5t6.5 32.5zM248 19q0 -17 -14 -28.5t-45 -12.5q-27 0 -43.5 12.5t-16.5 29.5
v502q0 10 2 20t8.5 17.5t18.5 12.5t31 5q21 0 33 -5.5t17.5 -13t7 -17.5t1.5 -19v-503z" />
    <glyph glyph-name="ocircumflex" unicode="&#xf4;" horiz-adv-x="372" 
d="M351 660l-109 74h-96l-110 -74l30 -19l128 61l127 -61zM318 41v455q0 15 -3 32.5t-15 33t-37 26t-69 10.5q-45 0 -71 -10t-38.5 -25t-16 -33.5t-3.5 -34.5v-457q0 -35 29 -59t100 -24q35 0 58.5 7t38 19t21 27.5t6.5 32.5zM251 19q0 -17 -14 -28.5t-45 -12.5
q-27 0 -43.5 12.5t-16.5 29.5v502q0 10 2 20t8.5 17.5t18.5 12.5t31 5q21 0 33 -5.5t17.5 -13t7 -17.5t1.5 -19v-503z" />
    <glyph glyph-name="otilde" unicode="&#xf5;" horiz-adv-x="393" 
d="M374 713l-29 21l-96 -45l-118 45l-110 -74l29 -20l96 47l118 -47zM332 41v455q0 15 -3 32.5t-15.5 33t-37.5 26t-69 10.5q-45 0 -71 -10t-38.5 -25t-16 -33.5t-3.5 -34.5v-457q0 -35 28.5 -59t100.5 -24q35 0 59 7t38.5 19t21 27.5t6.5 32.5zM264 19q0 -17 -14 -28.5
t-44 -12.5q-27 0 -43.5 12.5t-16.5 29.5v502q0 10 2 20t8.5 17.5t18.5 12.5t31 5q21 0 32.5 -5.5t17 -13t7 -17.5t1.5 -19v-503z" />
    <glyph glyph-name="odieresis" unicode="&#xf6;" horiz-adv-x="378" 
d="M275 677q0 12 -6.5 25t-20.5 13t-20.5 -13t-6.5 -25t6.5 -24.5t20.5 -12.5t20.5 12t6.5 25zM185 676q0 12 -6.5 25t-20.5 13t-20.5 -12.5t-6.5 -24.5q0 -13 6.5 -25.5t20.5 -12.5t20.5 12.5t6.5 24.5zM320 41v455q0 15 -3 32.5t-15.5 33t-37.5 26t-69 10.5q-45 0 -71 -10
t-38.5 -25t-16 -33.5t-3.5 -34.5v-457q0 -35 28.5 -59t100.5 -24q35 0 59 7t38.5 19t21 27.5t6.5 32.5zM252 19q0 -17 -14 -28.5t-44 -12.5q-27 0 -43.5 12.5t-16.5 29.5v502q0 10 2 20t8 17.5t18 12.5t32 5q21 0 32.5 -5.5t17 -13t7 -17.5t1.5 -19v-503z" />
    <glyph glyph-name="divide" unicode="&#xf7;" horiz-adv-x="719" 
d="M417 342q0 29 -19 50t-45 21t-44 -20t-19 -49q-1 -15 4 -28t13 -23t19.5 -16.5t24.5 -6.5q13 -1 25 5t21 16t14.5 23t5.5 28zM654 135v72h-594v-72h594zM416 -1q0 29 -19 49.5t-46 20.5q-26 0 -44 -20t-19 -49t17.5 -50.5t45.5 -22.5q13 0 25 5.5t21 15t14 23t5 28.5z
" />
    <glyph glyph-name="oslash" unicode="&#xf8;" horiz-adv-x="459" 
d="M422 627h-69l-26 -56q-18 15 -38.5 22t-52.5 8q-44 0 -68.5 -9.5t-36.5 -24t-15 -32t-3 -32.5v-462l-47 -118h71l15 44q21 -10 44 -13t40 -3q67 0 93.5 24.5t26.5 58.5v431zM293 480l-116 -281v330q0 9 2 18.5t8.5 17t18 12.5t30.5 5q23 0 34.5 -7.5t16 -17.5t4.5 -19v-9
zM291 12q0 -16 -13.5 -27t-41.5 -12q-26 0 -42.5 12t-16.5 28v13l114 278v-292z" />
    <glyph glyph-name="ugrave" unicode="&#xf9;" horiz-adv-x="372" 
d="M282 657l-111 67l-48 -28l129 -57zM315 38v558h-67v-576q0 -17 -15 -29.5t-42 -12.5q-29 0 -44 12t-15 29v577h-67v-555q0 -17 6.5 -32.5t21.5 -27.5t39 -19t59 -7t59 6.5t38.5 18t20.5 26.5t6 32z" />
    <glyph glyph-name="uacute" unicode="&#xfa;" horiz-adv-x="378" 
d="M279 701l-48 31l-109 -73l30 -20zM315 38v558h-67v-576q0 -17 -15 -29.5t-42 -12.5q-29 0 -44 12t-15 29v577h-67v-555q0 -17 6.5 -32.5t21.5 -27.5t39 -19t59 -7t59 6.5t38.5 18t20.5 26.5t6 32z" />
    <glyph glyph-name="ucircumflex" unicode="&#xfb;" horiz-adv-x="377" 
d="M345 659l-109 74h-96l-110 -74l30 -19l128 61l127 -61zM315 38v558h-67v-576q0 -17 -15 -29.5t-42 -12.5q-29 0 -44 12t-15 29v577h-67v-555q0 -17 6.5 -32.5t21.5 -27.5t39 -19t59 -7t59 6.5t38.5 18t20.5 26.5t6 32z" />
    <glyph glyph-name="udieresis" unicode="&#xfc;" horiz-adv-x="371" 
d="M267 677q2 12 -4.5 25t-20.5 13q-15 0 -22 -13t-7 -25t6.5 -24.5t20.5 -12.5t20.5 12t6.5 25zM177 676q0 12 -5.5 25t-19.5 13q-15 0 -22 -12.5t-7 -24.5q0 -13 6.5 -25.5t20.5 -12.5t20.5 12.5t6.5 24.5zM315 38v558h-67v-576q0 -17 -15 -29.5t-42 -12.5q-29 0 -44 12
t-15 29v577h-67v-555q0 -17 6.5 -32.5t21.5 -27.5t39 -19t59 -7t59 6.5t38.5 18t20.5 26.5t6 32z" />
    <glyph glyph-name="ydieresis" unicode="&#xff;" horiz-adv-x="387" 
d="M281 678q1 12 -5.5 25t-20.5 13t-21 -13t-7 -25t6.5 -24.5t20.5 -12.5t20.5 12.5t6.5 24.5zM191 677q0 12 -6 25t-20 13t-20.5 -12.5t-6.5 -24.5t6 -25t20 -13t20.5 13t6.5 24zM336 595h-49q-7 -38 -12.5 -66.5t-14.5 -67.5q-7 -29 -13.5 -53.5t-13.5 -48t-14.5 -47.5
t-15.5 -51q-9 28 -16 51.5t-13.5 46t-13 46t-13.5 52.5q-5 20 -8.5 36.5t-6.5 32.5t-5 32.5t-5 36.5h-69q3 -20 5.5 -36.5t5.5 -32t7 -32.5t9 -37q9 -38 17.5 -69t17.5 -61t20 -61t26 -68v-240h69v241q13 36 23 66t18.5 59t17 59t17.5 67q5 21 9 38.5t7.5 34t6.5 34t7 38.5z
" />
    <glyph glyph-name="notequal" unicode="&#xe000;" horiz-adv-x="551" 
d="M503 227v70h-141l64 161l-42 35l-79 -196l-257 1v-71h227l-63 -164h-164v-70h134l-63 -155l43 -36l77 191h262v70h-237l71 164h168z" />
    <glyph glyph-name="infinity" unicode="&#xe001;" horiz-adv-x="908" 
d="M849 160q-1 37 -14.5 68.5t-36 54.5t-52 37t-63.5 16q-42 2 -84 -21.5t-80 -61.5l-64 -64l-65 64q-38 38 -79.5 61.5t-83.5 21.5q-34 -2 -64 -16t-52.5 -37t-36 -54.5t-14.5 -68.5q-1 -44 13 -79.5t37 -60.5t53 -38t61 -13q41 1 89.5 21.5t90.5 64.5l51 53l51 -53
q42 -44 90.5 -64.5t89.5 -21.5q31 0 60.5 13t53 38t37 60.5t12.5 79.5zM791 155q2 -26 -6 -48.5t-23 -39.5t-36.5 -27.5t-47.5 -10.5q-37 -1 -63.5 10.5t-53.5 39.5l-70 72l75 64q29 25 53 38t59 15q47 2 78.5 -30.5t34.5 -82.5zM419 151l-71 -72q-26 -27 -52.5 -39
t-64.5 -11q-26 0 -47.5 10.5t-36.5 27.5t-22.5 39.5t-5.5 48.5q4 50 35 82.5t77 30.5q35 -2 59.5 -15t53.5 -38z" />
    <glyph glyph-name="lessequal" unicode="&#xe002;" horiz-adv-x="522" 
d="M474 -50v61l-351 184l351 176v62l-421 -213v-49zM474 -150v52h-421v-52h421z" />
    <glyph glyph-name="greaterequal" unicode="&#xe003;" horiz-adv-x="522" 
d="M482 171v49l-422 213v-62l353 -176l-353 -184v-61zM482 -150v52h-420l-2 -52h422z" />
    <glyph glyph-name="partialdiff" unicode="&#xe004;" horiz-adv-x="591" 
d="M530 310q-5 74 -24 146.5t-53.5 130t-85.5 93.5t-118 37q-28 1 -48.5 -3.5t-48.5 -13.5l-45 -15l39 -55l19 7q15 5 27 10.5t24 9.5t24.5 6.5t28.5 2.5q54 0 91 -35t58 -89t27 -118.5t-1 -124.5l-7 -58l-32 24q-17 13 -32.5 23t-31 17t-32 11t-37.5 4q-46 0 -85.5 -21
t-68 -56.5t-43.5 -82t-13 -96.5q5 -93 53 -156t143 -74q43 -5 81.5 13.5t69.5 53t55.5 82.5t40 102.5t22 112.5t3.5 112zM428 197l-15 -90q-7 -44 -20.5 -91.5t-34 -84.5t-49.5 -56.5t-67 -6.5q-32 11 -52.5 36.5t-30.5 59t-9.5 71.5t9.5 74q9 35 25 67t38 55.5t49 34
t59 3.5q23 -5 37.5 -15t31.5 -27z" />
    <glyph glyph-name="summation" unicode="&#xe005;" horiz-adv-x="198" 
d="M167 -96q1 12 -6.5 25t-22.5 13q-14 0 -20.5 -13t-6.5 -24q0 -12 6.5 -24.5t20.5 -13.5q7 0 9 2q0 -1 -0.5 -8t-3.5 -13q-2 -3 -5.5 -8.5t-3.5 -6.5v-7q14 11 23 32t10 46zM75 -96q2 12 -5 25t-22 13q-14 0 -20.5 -13t-6.5 -24q0 -12 6.5 -24.5t20.5 -13.5q5 0 7 0.5
t4 1.5q0 -1 -1.5 -8t-4.5 -13q-2 -3 -5.5 -8.5t-3.5 -6.5v-7q16 11 23 32t8 46z" />
    <glyph glyph-name="product" unicode="&#xe006;" horiz-adv-x="761" 
d="M711 -263v19l-19 1q-15 1 -26 4.5t-22 17.5q-13 16 -15 35t-2 43v689q0 32 4.5 57t21.5 45q10 11 19 16t21 7l18 2v25h-661v-24l15 -1q14 -1 22.5 -8t17.5 -18q15 -17 21 -37t6 -46v-697q0 -26 -2 -48.5t-17 -39.5q-11 -11 -21.5 -13.5t-25.5 -2.5h-19v-26h262v24h-16
q-15 0 -26 2t-24 14q-14 17 -17.5 39.5t-3.5 49.5v765h308v-772q0 -23 -0.5 -42.5t-11.5 -36.5q-11 -14 -22.5 -16t-25.5 -4l-21 -2v-21h262z" />
    <glyph glyph-name="pi" unicode="&#xe007;" horiz-adv-x="587" 
d="M543 158h-18l-4 -23q-5 -32 -20.5 -53t-38.5 -23q-15 -1 -27 9t-20.5 26t-12.5 36.5t-3 40.5l12 319h126v109h-346q-18 0 -31.5 -5t-30.5 -16q-17 -12 -27.5 -27t-18.5 -33t-14.5 -39t-14.5 -45l-6 -18l17 -9q1 5 5 14.5t10.5 20.5t14.5 21t18 15q12 6 21.5 6.5t23.5 0.5
h31l-22 -287q-2 -20 -7 -34t-10 -32q-6 -22 -17.5 -37.5t-21.5 -30t-16.5 -32t-1.5 -43.5q4 -20 14.5 -30.5t24.5 -16.5q17 -7 30.5 3t23 29.5t15.5 45t8 48.5l37 422h113l-21 -286q-3 -40 -2 -84t9 -81t25.5 -62.5t46.5 -28.5q26 -3 48.5 11.5t39 40t26.5 59.5t11 70z" />
    <glyph glyph-name="integral" unicode="&#xe008;" horiz-adv-x="335" 
d="M284 740q1 12 -3.5 22.5t-13.5 17.5t-20 11t-22 4q-32 0 -51 -27t-29 -67.5t-13.5 -88t-3.5 -90.5v-503q0 -35 2 -79t1.5 -81t-7 -60.5t-23.5 -18.5q-7 2 -11 8t-8 11.5t-9 10t-14 3.5q-17 -1 -28 -13.5t-13 -29.5q-2 -20 12 -34.5t29 -19.5q30 -9 51.5 5.5t36 44.5
t23 71t13 83.5t5.5 82.5t1 69v362q0 42 -5.5 95.5t-8 99.5t1 73.5t21.5 18.5q13 -7 20 -15t21 -8q18 0 30.5 11.5t14.5 30.5z" />
    <glyph glyph-name="Omega" unicode="&#xe009;" horiz-adv-x="882" 
d="M818 -152v183h-20q0 -13 -2.5 -22t-7.5 -20q-20 -30 -56 -30h-174v36q52 10 93.5 37.5t71.5 68.5t47 92.5t19 110.5q2 70 -22.5 125t-70 92.5t-110.5 57.5t-145 20q-75 0 -139.5 -19.5t-112 -57t-74 -92.5t-23.5 -126q2 -59 19 -110.5t47 -92.5t71.5 -68.5t93.5 -37.5
v-36h-173q-37 0 -57 30q-5 11 -7.5 20t-1.5 22h-21v-183h315l-15 174q-77 38 -113 111.5t-35 168.5q1 53 12.5 101t37.5 84t69.5 57t108.5 20q70 -1 113.5 -22t68 -57t33.5 -83.5t10 -99.5q1 -95 -36 -168.5t-114 -111.5l-15 -174h315z" />
    <glyph glyph-name="radical" unicode="&#xe00a;" horiz-adv-x="617" 
d="M566 807l-35 5l-126 -852l-196 426l-143 -74l15 -36l93 53l243 -535z" />
    <glyph glyph-name="approxequal" unicode="&#xe00b;" horiz-adv-x="753" 
d="M702 309l-45 32l-21 -24q-23 -26 -47 -36t-56 -13q-15 -2 -27.5 0.5t-24 6.5t-23.5 9t-27 10l-86 28q-35 11 -62.5 17t-64.5 -1q-44 -8 -74.5 -26t-60.5 -54l-17 -20l51 -35l18 23q19 24 39 36t47 18q29 7 50.5 0t49.5 -16l96 -30q17 -5 31 -11t27.5 -10.5t28 -7
t32.5 -1.5q46 2 80 19t64 57zM702 102l-45 32l-21 -24q-23 -26 -47 -36t-56 -13q-15 -2 -27.5 0.5t-24 6.5t-23.5 9t-27 10l-86 28q-17 6 -32 10.5t-30 7t-31 2.5t-34 -3q-44 -8 -74 -27.5t-61 -54.5l-17 -19l51 -36l18 23q19 24 39 36t47 18q29 7 50.5 0.5t49.5 -15.5
l96 -30q17 -5 31 -11t27.5 -11t28 -7.5t32.5 -1.5q46 2 80.5 19t63.5 57z" />
    <glyph glyph-name="Delta" unicode="&#xe00c;" horiz-adv-x="821" 
d="M764 -151l-329 875l-373 -875h702zM624 -94h-489l257 610z" />
    <glyph glyph-name="lozenge" unicode="&#xe00d;" horiz-adv-x="588" 
d="M531 282l-199 418h-66l-204 -412l204 -438h66zM471 282l-171 -378l-177 382l174 351z" />
    </font>
</defs>
</svg>
